<svg width="21" height="21" viewBox="0 0 21 21" fill="none" xmlns="http://www.w3.org/2000/svg">
<path d="M12.9477 19.8426H7.81839C3.17639 19.8426 1.19307 17.8449 1.19307 13.1691V8.00257C1.19307 3.32684 3.17639 1.3291 7.81839 1.3291H12.9477C17.5897 1.3291 19.573 3.32684 19.573 8.00257V13.1691C19.573 17.8449 17.5897 19.8426 12.9477 19.8426ZM7.81839 2.62074C3.87739 2.62074 2.47539 4.03293 2.47539 8.00257V13.1691C2.47539 17.1388 3.87739 18.551 7.81839 18.551H12.9477C16.8887 18.551 18.2907 17.1388 18.2907 13.1691V8.00257C18.2907 4.03293 16.8887 2.62074 12.9477 2.62074H7.81839Z" fill="white"/>
<path d="M9.30582 14.2714C9.14339 14.2714 8.98096 14.2111 8.85273 14.082C8.60482 13.8322 8.60482 13.4189 8.85273 13.1692L11.4174 10.5859L8.85273 8.00263C8.60482 7.75292 8.60482 7.33959 8.85273 7.08988C9.10065 6.84016 9.51099 6.84016 9.7589 7.08988L12.7766 10.1295C13.0245 10.3793 13.0245 10.7926 12.7766 11.0423L9.7589 14.082C9.63067 14.2111 9.46824 14.2714 9.30582 14.2714Z" fill="white"/>
</svg>
