<svg width="39" height="46" viewBox="0 0 39 46" fill="none" xmlns="http://www.w3.org/2000/svg">
<g id="Shield Done">
<path id="Shield Done_2" fill-rule="evenodd" clip-rule="evenodd" d="M19.0781 45.1358C19.3289 45.2668 19.6094 45.3334 19.8899 45.3312C20.1703 45.329 20.4485 45.2601 20.7016 45.1269L28.7828 40.8069C31.0745 39.5854 32.869 38.2194 34.2691 36.6291C37.3132 33.1643 38.9755 28.7422 38.9458 24.1824L38.8501 9.14144C38.841 7.40903 37.7031 5.86317 36.0203 5.30125L20.9867 0.257249C20.0814 -0.0492556 19.0895 -0.0425925 18.2002 0.272796L3.2236 5.4967C1.5499 6.08084 0.432585 7.63779 0.441706 9.37243L0.537476 24.4023C0.567119 28.9687 2.28642 33.3709 5.38071 36.8002C6.79445 38.3682 8.60497 39.7142 10.9217 40.9158L19.0781 45.1358ZM16.9387 27.4582C17.2762 27.7825 17.714 27.9424 18.1518 27.938C18.5896 27.9357 19.0252 27.7714 19.3581 27.4427L28.1894 18.7362C28.853 18.0809 28.8462 17.0282 28.1758 16.3818C27.5031 15.7355 26.42 15.74 25.7564 16.3952L18.1267 23.9156L15.0028 20.9128C14.3301 20.2665 13.2493 20.2731 12.5835 20.9283C11.9199 21.5835 11.9268 22.6363 12.5994 23.2826L16.9387 27.4582Z" fill="#61C5E7"/>
</g>
</svg>
