<svg width="47" height="46" viewBox="0 0 47 46" fill="none" xmlns="http://www.w3.org/2000/svg">
<g id="Graph">
<path id="Graph_2" fill-rule="evenodd" clip-rule="evenodd" d="M24.1493 0.503934C24.511 0.179271 24.9895 0.00909107 25.4792 0.0309211C35.832 0.340838 44.4843 7.85637 46.0524 17.9012C46.0623 17.9611 46.0623 18.0223 46.0524 18.0823C46.0861 18.5576 45.9255 19.0264 45.606 19.3852C45.2865 19.744 44.8345 19.9631 44.3499 19.9941L26.956 21.1411C26.3808 21.1921 25.8104 21.0029 25.3848 20.6198C24.9592 20.2367 24.7179 19.6954 24.7203 19.1287L23.5511 2.04334V1.7616C23.5724 1.28108 23.7876 0.828597 24.1493 0.503934ZM22.9563 25.6088L38.0324 24.6428L38.1349 24.6831C38.7823 24.6937 39.3989 24.9562 39.849 25.4128C40.299 25.8695 40.5457 26.4829 40.5348 27.1181C39.9407 35.775 33.5938 43.0082 24.9565 44.8717C16.3193 46.7352 7.46503 42.7816 3.2241 35.1677C1.97709 32.9748 1.18907 30.5597 0.906287 28.0639C0.79661 27.3244 0.748591 26.5773 0.762705 25.8301C0.79129 16.6248 7.34522 8.67922 16.5156 6.73233C17.6258 6.52454 18.7388 7.07882 19.2232 8.08065C19.3438 8.26244 19.4403 8.45855 19.5103 8.66425C19.6823 11.3178 19.8606 13.9463 20.0381 16.5637C20.1784 18.6308 20.3181 20.691 20.4539 22.7511C20.4469 23.2365 20.5231 23.7195 20.6795 24.18C21.0476 25.086 21.9636 25.6608 22.9563 25.6088Z" fill="#61C5E7"/>
</g>
</svg>
