<svg width="46" height="44" viewBox="0 0 46 44" fill="none" xmlns="http://www.w3.org/2000/svg">
<g id="Heart">
<path id="Heart_2" fill-rule="evenodd" clip-rule="evenodd" d="M31.6976 0.165645C33.1268 0.165645 34.5537 0.367228 35.9104 0.822489C44.2705 3.54046 47.2829 12.7136 44.7665 20.7317C43.3395 24.829 41.0066 28.5685 37.9512 31.6239C33.5775 35.8595 28.778 39.6193 23.6116 42.8582L23.0453 43.2003L22.4564 42.8356C17.2719 39.6193 12.4452 35.8595 8.0308 31.6013C4.99573 28.5458 2.66054 24.829 1.21095 20.7317C-1.34847 12.7136 1.66395 3.54046 10.1146 0.774924C10.7714 0.548426 11.4487 0.389878 12.1281 0.301544H12.3999C13.0364 0.208679 13.6683 0.165645 14.3025 0.165645H14.5517C15.9786 0.208679 17.3602 0.457827 18.6989 0.913088H18.8325C18.9231 0.956123 18.991 1.00369 19.0363 1.04672C19.5369 1.20754 20.0103 1.38873 20.4633 1.63788L21.324 2.02293C21.5319 2.13385 21.7654 2.30333 21.9671 2.44981C22.095 2.54262 22.2101 2.62619 22.2979 2.67977C22.3349 2.70158 22.3724 2.72351 22.4103 2.74562C22.6045 2.85898 22.8068 2.97707 22.9774 3.10785C25.4938 1.18489 28.5492 0.142995 31.6976 0.165645ZM37.7224 16.4735C38.6511 16.4486 39.4438 15.7034 39.5117 14.7498V14.4803C39.5797 11.3071 37.6567 8.43282 34.7327 7.32298C33.804 7.00362 32.7848 7.50418 32.445 8.45547C32.1279 9.40676 32.6262 10.4487 33.5775 10.7861C35.0294 11.3297 36.001 12.7589 36.001 14.3421V14.4124C35.958 14.931 36.1143 15.4316 36.4314 15.8166C36.7485 16.2017 37.2241 16.4259 37.7224 16.4735Z" fill="#61C5E7"/>
</g>
</svg>
