<svg width="39" height="46" viewBox="0 0 39 46" fill="none" xmlns="http://www.w3.org/2000/svg">
<g id="Location">
<path id="Location_2" fill-rule="evenodd" clip-rule="evenodd" d="M0.44165 18.8686C0.44165 8.45 9.14796 0.0290527 19.6791 0.0290527C30.24 0.0290527 38.9463 8.45 38.9463 18.8686C38.9463 24.1187 37.0369 28.9928 33.8942 33.124C30.4273 37.681 26.154 41.6514 21.3441 44.7679C20.2432 45.4881 19.2497 45.5425 18.0415 44.7679C13.2042 41.6514 8.93099 37.681 5.49368 33.124C2.34872 28.9928 0.44165 24.1187 0.44165 18.8686ZM13.3389 19.4552C13.3389 22.9455 16.187 25.6905 19.6791 25.6905C23.1735 25.6905 26.049 22.9455 26.049 19.4552C26.049 15.9922 23.1735 13.1135 19.6791 13.1135C16.187 13.1135 13.3389 15.9922 13.3389 19.4552Z" fill="#61C5E7"/>
</g>
</svg>
