<svg width="134" height="134" viewBox="0 0 134 134" fill="none" xmlns="http://www.w3.org/2000/svg">
<g clip-path="url(#clip0_913_441)">
<path fill-rule="evenodd" clip-rule="evenodd" d="M86.1281 21.148L78.4148 13.242L84.4029 7.39623L89.6121 12.7311L97.0659 12.639C100.292 12.6008 103.494 13.2081 106.482 14.4253C109.471 15.6424 112.185 17.4448 114.467 19.7264C116.749 22.008 118.551 24.7228 119.768 27.7111C120.985 30.6995 121.593 33.901 121.554 37.1275L121.471 44.5812L126.797 49.7905C129.104 52.0448 130.937 54.7375 132.189 57.7103C133.44 60.6831 134.085 63.8761 134.085 67.1016C134.085 70.3271 133.44 73.5201 132.189 76.4929C130.937 79.4658 129.104 82.1584 126.797 84.4127L121.462 89.622L121.554 97.0757C121.593 100.302 120.985 103.504 119.768 106.492C118.551 109.48 116.749 112.195 114.467 114.477C112.185 116.758 109.471 118.561 106.482 119.778C103.494 120.995 100.292 121.602 97.0659 121.564L89.6121 121.48L84.4029 126.807C82.1486 129.114 79.4559 130.947 76.4831 132.199C73.5103 133.45 70.3173 134.095 67.0918 134.095C63.8662 134.095 60.6733 133.45 57.7004 132.199C54.7276 130.947 52.0349 129.114 49.7806 126.807L44.5714 121.472L37.1176 121.564C33.8912 121.602 30.6896 120.995 27.7013 119.778C24.713 118.561 21.9982 116.758 19.7166 114.477C17.4349 112.195 15.6326 109.48 14.4154 106.492C13.1983 103.504 12.591 100.302 12.6291 97.0757L12.7129 89.622L7.3864 84.4127C5.07942 82.1584 3.2463 79.4658 1.99476 76.4929C0.743224 73.5201 0.0985107 70.3271 0.0985107 67.1016C0.0985107 63.8761 0.743224 60.6831 1.99476 57.7103C3.2463 54.7375 5.07942 52.0448 7.3864 49.7905L12.7213 44.5812L12.6291 37.1275C12.591 33.901 13.1983 30.6995 14.4154 27.7111C15.6326 24.7228 17.4349 22.008 19.7166 19.7264C21.9982 17.4448 24.713 15.6424 27.7013 14.4253C30.6896 13.2081 33.8912 12.6008 37.1176 12.639L44.5714 12.7227L49.7806 7.39623C52.0349 5.08926 54.7276 3.25614 57.7004 2.0046C60.6733 0.753058 63.8662 0.108345 67.0918 0.108345C70.3173 0.108345 73.5103 0.753058 76.4831 2.0046C79.4559 3.25614 82.1486 5.08926 84.4029 7.39623L78.4148 13.242C76.9404 11.7327 75.1793 10.5334 73.2347 9.71456C71.2902 8.89574 69.2017 8.47393 67.0918 8.47393C64.9819 8.47393 62.8933 8.89574 60.9488 9.71456C59.0043 10.5334 57.2431 11.7327 55.7688 13.242L48.0638 21.148L37.0088 21.014C34.8998 20.9904 32.8073 21.3885 30.8543 22.185C28.9014 22.9815 27.1273 24.1603 25.6363 25.6521C24.1453 27.1438 22.9674 28.9185 22.172 30.8719C21.3765 32.8253 20.9795 34.918 21.0041 37.027L21.1381 48.0652L13.2321 55.7786C11.7229 57.2529 10.5235 59.0141 9.70473 60.9586C8.8859 62.9031 8.46409 64.9917 8.46409 67.1016C8.46409 69.2115 8.8859 71.3001 9.70473 73.2446C10.5235 75.1891 11.7229 76.9503 13.2321 78.4246L21.1381 86.1296L21.0041 97.1846C20.9806 99.2936 21.3787 101.386 22.1752 103.339C22.9717 105.292 24.1504 107.066 25.6422 108.557C27.134 110.048 28.9087 111.226 30.8621 112.021C32.8155 112.817 34.9081 113.214 37.0171 113.189L48.0554 113.055L55.7688 120.961C57.2431 122.471 59.0043 123.67 60.9488 124.489C62.8933 125.307 64.9819 125.729 67.0918 125.729C69.2017 125.729 71.2902 125.307 73.2347 124.489C75.1793 123.67 76.9404 122.471 78.4148 120.961L86.1198 113.055L97.1748 113.189C99.2838 113.213 101.376 112.815 103.329 112.018C105.282 111.222 107.056 110.043 108.547 108.551C110.038 107.059 111.216 105.285 112.012 103.331C112.807 101.378 113.204 99.2852 113.179 97.1762L113.045 86.138L120.951 78.4246C122.461 76.9503 123.66 75.1891 124.479 73.2446C125.298 71.3001 125.719 69.2115 125.719 67.1016C125.719 64.9917 125.298 62.9031 124.479 60.9586C123.66 59.0141 122.461 57.2529 120.951 55.7786L113.045 48.0736L113.179 37.0186C113.203 34.9096 112.805 32.8171 112.008 30.8642C111.212 28.9112 110.033 27.1371 108.541 25.6461C107.05 24.1551 105.275 22.9773 103.321 22.1818C101.368 21.3864 99.2754 20.9893 97.1664 21.014L86.1281 21.148Z" fill="#61C5E7"/>
<path fill-rule="evenodd" clip-rule="evenodd" d="M86.7198 51.4721C87.1098 51.8611 87.4192 52.3232 87.6303 52.8319C87.8414 53.3406 87.95 53.886 87.95 54.4368C87.95 54.9876 87.8414 55.533 87.6303 56.0418C87.4192 56.5505 87.1098 57.0126 86.7198 57.4016L61.5948 82.5266C61.2058 82.9165 60.7437 83.2259 60.235 83.437C59.7262 83.6482 59.1809 83.7568 58.63 83.7568C58.0792 83.7568 57.5339 83.6482 57.0251 83.437C56.5164 83.2259 56.0543 82.9165 55.6653 82.5266L43.1028 69.9641C42.7135 69.5747 42.4046 69.1125 42.1939 68.6038C41.9832 68.0952 41.8748 67.5499 41.8748 66.9993C41.8748 66.4487 41.9832 65.9035 42.1939 65.3948C42.4046 64.8861 42.7135 64.4239 43.1028 64.0346C43.4921 63.6452 43.9543 63.3364 44.463 63.1257C44.9717 62.915 45.5169 62.8065 46.0675 62.8065C46.6182 62.8065 47.1634 62.915 47.6721 63.1257C48.1808 63.3364 48.643 63.6452 49.0323 64.0346L58.63 73.6407L80.7903 51.4721C81.1793 51.0821 81.6414 50.7727 82.1501 50.5616C82.6589 50.3505 83.2043 50.2418 83.7551 50.2418C84.3059 50.2418 84.8512 50.3505 85.36 50.5616C85.8687 50.7727 86.3308 51.0821 86.7198 51.4721Z" fill="#61C5E7"/>
</g>
<defs>
<clipPath id="clip0_913_441">
<rect width="134" height="134" fill="white"/>
</clipPath>
</defs>
</svg>
