<svg width="47" height="44" viewBox="0 0 47 44" fill="none" xmlns="http://www.w3.org/2000/svg">
<g id="Star">
<path id="Star_2" d="M36.8154 26.9363C36.2287 27.5049 35.9592 28.327 36.0928 29.1334L38.1064 40.2771C38.2763 41.2216 37.8776 42.1774 37.0872 42.7233C36.3125 43.2895 35.282 43.3574 34.4371 42.9044L24.4056 37.6723C24.0567 37.4866 23.6694 37.387 23.2731 37.3756H22.6593C22.4463 37.4073 22.238 37.4753 22.0477 37.5795L12.0139 42.8365C11.5178 43.0856 10.9561 43.174 10.4057 43.0856C9.06485 42.832 8.17019 41.5545 8.38989 40.2069L10.4057 29.0632C10.5394 28.25 10.2698 27.4233 9.68319 26.8458L1.50436 18.9183C0.820334 18.2547 0.582511 17.2581 0.895078 16.3589C1.19858 15.462 1.97321 14.8074 2.90864 14.6602L14.1656 13.0271C15.0217 12.9388 15.7737 12.4178 16.1588 11.6477L21.1191 1.47799C21.2368 1.2515 21.3886 1.04312 21.5721 0.86645L21.7759 0.707901C21.8824 0.590123 22.0047 0.492729 22.1406 0.413454L22.3875 0.322855L22.7725 0.164307H23.7261C24.5777 0.252641 25.3274 0.762261 25.7192 1.52329L30.7452 11.6477C31.1076 12.3884 31.812 12.9025 32.6252 13.0271L43.8821 14.6602C44.8334 14.7961 45.6284 15.4529 45.9432 16.3589C46.2399 17.2672 45.984 18.2637 45.2864 18.9183L36.8154 26.9363Z" fill="#61C5E7"/>
</g>
</svg>
