<svg width="46" height="42" viewBox="0 0 46 42" fill="none" xmlns="http://www.w3.org/2000/svg">
<g id="Ticket Star">
<path id="Ticket Star_2" fill-rule="evenodd" clip-rule="evenodd" d="M40.5564 20.681C40.5564 22.5236 42.0694 24.0227 43.9289 24.0227C44.8666 24.0227 45.6276 24.7768 45.6276 25.7059V31.7677C45.6276 36.8937 41.4193 41.0636 36.2461 41.0636H9.71187C4.53866 41.0636 0.328064 36.8937 0.328064 31.7677V25.7059C0.328064 24.7768 1.0891 24.0227 2.0268 24.0227C3.88861 24.0227 5.40162 22.5236 5.40162 20.681C5.40162 18.8856 3.94976 17.5345 2.0268 17.5345C1.57607 17.5345 1.14572 17.3572 0.826359 17.0408C0.506997 16.7243 0.328064 16.2957 0.328064 15.8513L0.332594 9.592C0.332594 4.46606 4.54092 0.293945 9.71414 0.293945H36.2416C41.4148 0.293945 45.6254 4.46606 45.6254 9.592L45.6276 15.6561C45.6276 16.1004 45.4487 16.5313 45.1316 16.8455C44.8122 17.162 44.3819 17.3393 43.9289 17.3393C42.0694 17.3393 40.5564 18.8384 40.5564 20.681ZM28.0785 22.1466L30.7489 19.5702C31.2132 19.1258 31.3741 18.4705 31.1725 17.8645C30.9732 17.2586 30.4522 16.8277 29.8225 16.7402L26.1329 16.206L24.4817 12.8935C24.1986 12.3234 23.6233 11.9688 22.9823 11.9666H22.9778C22.3391 11.9666 21.7638 12.3212 21.4761 12.8912L19.8249 16.206L16.1421 16.7379C15.5056 16.8277 14.9847 17.2586 14.7831 17.8645C14.5838 18.4705 14.7446 19.1258 15.2066 19.5702L17.8771 22.1466L17.2474 25.7891C17.1387 26.4175 17.3946 27.0414 17.9156 27.4162C18.21 27.6249 18.552 27.7326 18.8986 27.7326C19.1636 27.7326 19.4308 27.6676 19.6754 27.5396L22.9778 25.8205L26.2733 27.5351C26.8441 27.8381 27.5213 27.791 28.04 27.414C28.5632 27.0414 28.8192 26.4175 28.7104 25.7891L28.0785 22.1466Z" fill="#61C5E7"/>
</g>
</svg>
