<svg width="61" height="61" viewBox="0 0 61 61" fill="none" xmlns="http://www.w3.org/2000/svg">
<path id="office (Traced)" fill-rule="evenodd" clip-rule="evenodd" d="M15.782 0.721276C15.5617 0.964499 15.5435 1.25111 15.51 4.99814L15.4741 9.01417H8.49821C1.64931 9.01417 1.51741 9.01875 1.25113 9.26694L0.979764 9.51971V17.3591C0.979764 26.0859 0.947533 25.7497 1.78356 25.7497C2.08728 25.7497 2.27162 25.6606 2.45831 25.4231C2.71158 25.1011 2.7153 24.9925 2.7153 17.9231V10.7497H9.09958H15.4839V13.0431V15.3365H11.5981C7.99107 15.3365 7.69764 15.3527 7.50723 15.5632C7.3297 15.7593 7.30206 16.1492 7.30206 18.4572C7.30206 21.0107 7.31322 21.1345 7.56276 21.3607C7.80549 21.5804 8.08987 21.5993 11.6537 21.6329L15.4839 21.669V23.8902V26.1114L11.6537 26.1475C8.08987 26.1811 7.80549 26.2 7.56276 26.4197C7.31297 26.646 7.30206 26.7691 7.30206 29.3569C7.30206 32.0076 7.30714 32.0616 7.57764 32.2509C7.81243 32.4154 8.4159 32.4439 11.6685 32.4439H15.4839V34.7373V37.0307H11.6409C7.96317 37.0307 7.78727 37.0414 7.54999 37.2786C7.31743 37.5112 7.30218 37.6904 7.30392 40.1609C7.30504 41.6098 7.34681 42.8565 7.39689 42.9315C7.65078 43.3116 8.07846 43.353 11.7567 43.353H15.4839V45.6464V47.9398H11.5981C7.99107 47.9398 7.69764 47.956 7.50723 48.1665C7.3297 48.3626 7.30206 48.7525 7.30206 51.0605C7.30206 53.4871 7.32252 53.7463 7.5288 53.933C7.7295 54.1146 8.19797 54.1381 11.6197 54.1381H15.4839V56.4315V58.7249H9.09958H2.7153V53.3242C2.7153 47.166 2.721 47.2024 1.76162 47.1978C0.965012 47.1941 0.979764 47.0688 0.979764 53.8559C0.979764 59.7993 0.986458 59.9713 1.2277 60.2125C1.47427 60.4591 1.64088 60.4604 30.9797 60.4604C60.3185 60.4604 60.4851 60.4591 60.7317 60.2125C60.9776 59.9666 60.9796 59.7993 60.9796 39.0232V18.0817L60.6529 17.8249C60.3314 17.5719 60.2194 17.5679 53.4067 17.5679H46.4872L46.4503 13.1093C46.4179 9.17297 46.3897 8.62702 46.2101 8.44752C46.0039 8.24161 16.8693 0.460449 16.3041 0.460449C16.1468 0.460449 15.9119 0.577846 15.782 0.721276ZM31.2784 6.12512L44.7798 9.69586L44.6981 16.2662C44.6531 19.8799 44.6163 30.9113 44.6161 40.7807L44.616 58.7249H30.9797H17.3434V36.1833C17.3434 23.7853 17.3063 11.1133 17.2609 8.02293L17.1784 2.40425L17.4779 2.47925C17.6425 2.52053 23.8528 4.16111 31.2784 6.12512ZM21.4907 14.1532L21.1863 14.4574V17.258V20.0585L21.4907 20.3627L21.7949 20.6671H24.5731C27.196 20.6671 27.3695 20.6527 27.6778 20.4101L28.0045 20.1532V17.2489C28.0045 14.51 27.9903 14.3306 27.7565 14.0968C27.523 13.8633 27.3434 13.8489 24.6518 13.8489H21.7949L21.4907 14.1532ZM34.2028 14.0968C33.969 14.3306 33.9549 14.51 33.9549 17.2489V20.1532L34.2815 20.4101C34.5897 20.6526 34.7636 20.6671 37.3669 20.6671C39.8976 20.6671 40.15 20.6475 40.4184 20.4303C40.7086 20.1955 40.7114 20.1688 40.7485 17.332L40.7859 14.4704L40.4753 14.1597L40.1645 13.8489H37.3076C34.616 13.8489 34.4364 13.8633 34.2028 14.0968ZM26.2689 17.258V18.9315H24.5954H22.9219V17.258V15.5844H24.5954H26.2689V17.258ZM39.0375 17.258V18.9315H37.364H35.6904V17.258V15.5844H37.364H39.0375V17.258ZM15.4839 18.4997V19.9274L12.2297 19.8944L8.97561 19.8613L8.94053 18.4666L8.90544 17.072H12.1947H15.4839V18.4997ZM59.2441 39.0142V58.7249H52.8598H46.4755V39.0142V19.3034H52.8598H59.2441V39.0142ZM49.0168 23.4185C48.8805 23.4959 48.7279 23.6197 48.6778 23.6937C48.6277 23.7677 48.5859 24.8935 48.5848 26.1954C48.5831 28.3327 48.605 28.5825 48.8097 28.7677C49.0104 28.9493 49.4775 28.9728 52.8814 28.9728C56.4489 28.9728 56.7411 28.9565 56.9315 28.7461C57.1073 28.5519 57.1366 28.1809 57.1366 26.1519V23.7842L56.81 23.5273C56.4962 23.2805 56.3408 23.2705 52.874 23.2741C50.4183 23.2767 49.1855 23.3228 49.0168 23.4185ZM21.437 24.8446C21.1833 25.1671 21.175 25.2831 21.211 28.0017C21.2442 30.5141 21.2726 30.8482 21.4695 31.0451C21.6663 31.2419 22.0004 31.2703 24.5128 31.3035C27.2314 31.3395 27.3475 31.3312 27.6699 31.0776L28.0045 30.8144V27.9101C28.0045 25.1712 27.9903 24.9918 27.7565 24.758C27.5227 24.5242 27.3434 24.51 24.6045 24.51H21.7002L21.437 24.8446ZM34.2028 24.758C33.969 24.9918 33.9549 25.1712 33.9549 27.9101V30.8144L34.2895 31.0776C34.6119 31.3312 34.7279 31.3395 37.4465 31.3035C39.959 31.2703 40.293 31.2419 40.4899 31.0451C40.6868 30.8482 40.7151 30.5141 40.7484 28.0017C40.7843 25.2831 40.776 25.1671 40.5224 24.8446L40.2592 24.51H37.3549C34.616 24.51 34.4366 24.5242 34.2028 24.758ZM55.4011 26.1861V27.3664L52.8288 27.3328L50.2565 27.2993L50.2199 26.3185C50.1998 25.7791 50.212 25.2631 50.2471 25.1718C50.2974 25.0407 50.8445 25.0059 52.8559 25.0059H55.4011V26.1861ZM26.2689 27.9191V29.5927H24.5954H22.9219V27.9191V26.2456H24.5954H26.2689V27.9191ZM39.0375 27.9191V29.5927H37.364H35.6904V27.9191V26.2456H37.364H39.0375V27.9191ZM15.4839 29.2828V30.7084H12.1987H8.91363V29.3654C8.91363 28.6267 8.95082 27.9852 8.99631 27.9398C9.04168 27.8943 10.52 27.8571 12.2814 27.8571H15.4839V29.2828ZM1.2277 30.3365C1.00555 30.5586 0.979764 30.7497 0.979764 32.1744C0.979764 33.676 0.995756 33.7793 1.26662 34.0339C1.62042 34.3661 1.9772 34.3768 2.36063 34.0668C2.63546 33.8445 2.65579 33.7352 2.69435 32.2736C2.73451 30.7477 2.72918 30.711 2.421 30.4028C2.04327 30.0251 1.56563 29.9985 1.2277 30.3365ZM48.7881 32.1748C48.6123 32.369 48.5832 32.7366 48.5848 34.7471C48.5859 36.0371 48.6277 37.154 48.6778 37.229C48.9305 37.6075 49.361 37.6505 52.8969 37.6505C56.3375 37.6505 56.4966 37.6401 56.81 37.3935L57.1366 37.1367V34.7475C57.1366 32.5905 57.1146 32.3384 56.9099 32.1532C56.7092 31.9716 56.2421 31.9481 52.8382 31.9481C49.2707 31.9481 48.9785 31.9644 48.7881 32.1748ZM55.4011 34.7398V35.9201L52.8288 35.8865L50.2565 35.853L50.2199 34.8722C50.1998 34.3328 50.212 33.8169 50.2471 33.7255C50.2974 33.5945 50.8445 33.5596 52.8559 33.5596H55.4011V34.7398ZM21.4433 35.4978C21.2016 35.805 21.1863 35.9813 21.1863 38.4672C21.1863 40.2142 21.2353 41.2173 21.3307 41.4268C21.56 41.93 22.0992 42.0111 24.9237 41.9672C27.2339 41.9312 27.5086 41.9045 27.7439 41.6912C27.9944 41.4642 28.0045 41.3441 28.0045 38.5887C28.0045 36.1949 27.9726 35.6767 27.8115 35.4468C27.6213 35.175 27.5768 35.1712 24.6594 35.1712H21.7002L21.4433 35.4978ZM34.1479 35.4468C33.9867 35.6767 33.9549 36.1949 33.9549 38.5887C33.9549 41.3441 33.9649 41.4642 34.2155 41.6912C34.4507 41.9045 34.7255 41.9312 37.0357 41.9672C39.8602 42.0111 40.3994 41.93 40.6286 41.4268C40.7241 41.2173 40.773 40.2142 40.773 38.4672C40.773 35.9813 40.7578 35.805 40.5161 35.4978L40.2592 35.1712H37.3C34.3826 35.1712 34.3381 35.175 34.1479 35.4468ZM26.2689 38.5183V40.2538H24.5954H22.9219V38.601C22.9219 37.6918 22.959 36.9108 23.0045 36.8654C23.0499 36.82 23.803 36.7828 24.6781 36.7828H26.2689V38.5183ZM39.01 38.5493L39.0445 40.2538H37.3674H35.6904V38.5147V36.7756L37.333 36.8102L38.9755 36.8447L39.01 38.5493ZM1.17278 38.9178C1.0229 39.1318 0.979764 39.5423 0.979764 40.7557C0.979764 42.2285 0.996252 42.3335 1.26662 42.5876C1.62042 42.9199 1.9772 42.9305 2.36063 42.6204C2.63112 42.4016 2.65654 42.2787 2.69546 40.9999C2.74145 39.4917 2.69174 39.1323 2.39633 38.8369C2.10017 38.5407 1.4046 38.5867 1.17278 38.9178ZM15.4839 40.1919V41.6175H12.1987H8.91363V40.1919V38.7662H12.1987H15.4839V40.1919ZM48.7881 40.7285C48.6122 40.9229 48.5829 41.2943 48.5829 43.3318C48.5829 45.5431 48.6002 45.7256 48.8309 45.9563C49.0676 46.1931 49.2441 46.2043 52.744 46.2043C56.3595 46.2043 56.7884 46.1622 57.0418 45.7828C57.0919 45.7078 57.1337 44.5812 57.1348 43.2793C57.1365 41.1419 57.1146 40.8921 56.9099 40.7069C56.7092 40.5253 56.2421 40.5018 52.8382 40.5018C49.2707 40.5018 48.9785 40.5181 48.7881 40.7285ZM55.4011 43.353V44.4687H52.7978H50.1945V43.353V42.2373H52.7978H55.4011V43.353ZM21.793 45.8431C21.2468 46.0493 21.1863 46.3869 21.1863 49.2305C21.1863 51.7164 21.2016 51.8927 21.4433 52.1999L21.7002 52.5266H24.6594C27.5768 52.5266 27.6213 52.5227 27.8115 52.251C27.9726 52.021 28.0045 51.5028 28.0045 49.109C28.0045 46.3535 27.9944 46.2335 27.7438 46.0065C27.5064 45.7913 27.2446 45.7681 24.7996 45.7457C23.2753 45.7318 21.9766 45.7738 21.793 45.8431ZM34.5747 45.7963C33.9626 46.0214 33.9549 46.0626 33.9549 49.109C33.9549 51.5028 33.9867 52.021 34.1479 52.251C34.3381 52.5227 34.3826 52.5266 37.3 52.5266H40.2592L40.5161 52.1999C40.7578 51.8927 40.773 51.7164 40.773 49.2305C40.773 46.3388 40.7168 46.0474 40.1176 45.8385C39.7358 45.7054 34.9216 45.6687 34.5747 45.7963ZM26.2689 49.1831V50.9222L24.6264 50.8876L22.9838 50.853L22.9494 49.1485L22.9149 47.4439H24.5919H26.2689V49.1831ZM39.01 49.1485L38.9755 50.853L37.333 50.8876L35.6904 50.9222V49.1831V47.4439H37.3674H39.0445L39.01 49.1485ZM48.8585 49.2485C48.5895 49.4369 48.5829 49.4997 48.5829 51.9067C48.5829 54.3138 48.5895 54.3765 48.8585 54.565C49.0931 54.7293 49.6908 54.758 52.8874 54.758C56.4755 54.758 56.6517 54.7471 56.8887 54.51C57.1193 54.2795 57.1366 54.0969 57.1366 51.9067C57.1366 49.7166 57.1193 49.534 56.8887 49.3034C56.6517 49.0664 56.4755 49.0555 52.8874 49.0555C49.6908 49.0555 49.0931 49.0841 48.8585 49.2485ZM15.4839 51.1031V52.5307L12.2297 52.4977L8.97561 52.4646L8.94053 51.07L8.90544 49.6753H12.1947H15.4839V51.1031ZM55.4011 51.9067V53.0224H52.7978H50.1945V51.9067V50.791H52.7978H55.4011V51.9067Z" fill="#61C5E7"/>
</svg>
