<svg width="61" height="61" viewBox="0 0 61 61" fill="none" xmlns="http://www.w3.org/2000/svg">
<path id="map (Traced)" fill-rule="evenodd" clip-rule="evenodd" d="M28.2746 0.562125C24.0122 1.01103 19.9805 2.94468 16.9145 6.01056C13.2629 9.66185 11.3348 14.3401 11.3348 19.5486C11.3348 24.1968 12.801 28.8554 15.9108 34.0889C16.3698 34.8611 17.879 37.1342 18.1031 37.3909C18.192 37.4927 18.2648 37.6096 18.2648 37.6507C18.2648 37.6918 16.2612 37.7404 13.8124 37.7588C9.93392 37.7878 9.33592 37.816 9.17408 37.978C8.89144 38.2608 3.01879 52.5617 3.01879 52.9672C3.01879 53.634 3.81698 54.0313 4.34824 53.6287C4.46658 53.539 4.76657 52.9734 5.01473 52.3718L5.46589 51.278L8.46666 51.2467L11.4675 51.2154L11.2824 51.6572C11.1806 51.9002 10.4825 53.5898 9.73126 55.4118L8.36522 58.7246H5.38626C3.05034 58.7246 2.41986 58.693 2.46536 58.578C2.49726 58.4975 2.72196 57.9372 2.96473 57.333C3.31597 56.4592 3.38423 56.172 3.29897 55.9294C3.1458 55.494 2.65371 55.2427 2.23515 55.3863C1.8581 55.5157 1.61604 55.9593 0.727783 58.1485C0.104104 59.6854 0.09566 60.0392 0.675243 60.3332C0.907569 60.4511 6.9165 60.4753 30.384 60.4529L59.8016 60.425L60.0258 60.1482C60.1491 59.9959 60.25 59.7697 60.25 59.6457C60.25 59.3249 51.5083 38.2064 51.2817 37.9796C51.1177 37.8156 50.5365 37.7879 46.6418 37.7588C44.1929 37.7404 42.1893 37.6918 42.1893 37.6507C42.1893 37.6096 42.2622 37.4927 42.3511 37.3909C42.5752 37.1342 44.0843 34.8611 44.5433 34.0889C47.6532 28.8554 49.1194 24.1968 49.1194 19.5486C49.1194 14.3401 47.1912 9.66185 43.5397 6.01056C39.5067 1.97791 33.8845 -0.0287935 28.2746 0.562125ZM31.8858 2.32362C37.468 2.88757 42.2946 6.0312 45.106 10.934C47.3286 14.81 47.9324 19.3051 46.8626 24.013C45.6166 29.4966 42.2761 35.3129 36.9526 41.2682C35.0406 43.4068 30.5511 47.7013 30.2271 47.7013C29.8189 47.7013 24.2027 42.1707 22.3078 39.903C16.9764 33.5221 14.0303 27.7264 13.2269 22.0391C13.0348 20.6787 13.0548 18.1854 13.2685 16.8578C14.6134 8.49983 21.5705 2.41544 30.0094 2.21656C30.3734 2.208 31.2178 2.25619 31.8858 2.32362ZM29.243 11.4678C27.8967 11.632 26.3141 12.2553 25.6365 12.888C25.2169 13.2801 25.1913 13.7835 25.5728 14.142C25.9513 14.4974 26.2163 14.4647 27.2621 13.9329C28.3941 13.3573 29.0691 13.1977 30.3443 13.204C31.5878 13.2099 32.6395 13.5208 33.611 14.1696C37.0654 16.4762 37.5385 21.1279 34.6159 24.0503C32.1666 26.4995 28.2875 26.4995 25.8382 24.0503C23.9632 22.1754 23.4548 19.7717 24.3778 17.146L24.765 16.0443L24.5232 15.719C24.2238 15.3162 23.6271 15.222 23.2925 15.5247C23.0122 15.7785 22.6649 16.5474 22.4035 17.4937C22.2674 17.9867 22.2075 18.6445 22.2108 19.6154C22.2149 20.8109 22.2621 21.1638 22.5241 21.9608C22.9582 23.2809 23.5772 24.2794 24.6028 25.3143C26.0753 26.7999 28.1134 27.6442 30.2271 27.6442C33.7162 27.6442 36.849 25.3345 37.9139 21.9771C38.5541 19.9589 38.3942 17.9167 37.4447 15.9801C36.5789 14.2147 35.4342 13.0717 33.6867 12.2276C32.2204 11.5193 30.8048 11.2772 29.243 11.4678ZM16.2175 39.6977C16.1742 39.8105 15.6866 40.9979 15.1337 42.3363L14.1286 44.7696H11.144C9.43455 44.7696 8.17617 44.7247 8.19857 44.6645C8.22003 44.6067 8.70943 43.4194 9.28596 42.026L10.3343 39.4925H13.3152C16.106 39.4925 16.2912 39.5056 16.2175 39.6977ZM20.92 40.9877C23.3572 43.8663 28.8189 49.167 29.8834 49.6868C30.3782 49.9285 30.6304 49.7751 32.6171 48.0238L34.3131 46.5287H39.4241C44.3785 46.5287 44.542 46.5215 44.7694 46.2941C45.0855 45.9781 45.0793 45.3432 44.7572 45.0516C44.5258 44.8421 44.2494 44.8261 40.2876 44.7947L36.0647 44.7611L37.105 43.6807C37.6772 43.0863 38.744 41.901 39.4757 41.0463L40.806 39.4925H45.4629H50.1198L51.1682 42.026C51.7447 43.4194 52.2331 44.6038 52.2533 44.6579C52.2736 44.712 51.1799 44.7725 49.8229 44.7922C47.4679 44.8266 47.3439 44.8399 47.0998 45.0841C46.9359 45.2483 46.8482 45.4753 46.855 45.7176C46.8758 46.4487 46.9371 46.4639 50.1345 46.5287L53.0288 46.5873L53.6394 48.0238L54.25 49.4604H45.0793C35.0925 49.4604 35.5079 49.4326 35.3373 50.1126C35.2951 50.2808 35.2916 50.5164 35.3296 50.6361C35.3676 50.7558 37.413 52.6115 39.8749 54.7599L44.3511 58.666L41.8063 58.6975L39.2616 58.7292L30.2119 51.0291C25.2346 46.794 21.0153 43.2735 20.8359 43.2058C20.3927 43.0385 19.9941 43.2336 19.7596 43.7325C19.6232 44.0226 13.9727 57.6563 13.6068 58.578C13.5642 58.6855 13.1135 58.7246 11.9193 58.7246C11.0232 58.7246 10.29 58.7083 10.29 58.6884C10.29 58.6685 11.0199 56.8874 11.912 54.7306C12.804 52.5736 13.5709 50.6614 13.6161 50.4811C13.6831 50.2132 13.6347 50.0896 13.3518 49.8068L13.0054 49.4604H9.60484H6.20415L6.81481 48.0238L7.42559 46.5873L11.243 46.5564C15.028 46.5257 15.0624 46.5233 15.2958 46.2633C15.4252 46.1189 16.1032 44.6025 16.8022 42.8933C17.5013 41.1841 18.1228 39.7198 18.1834 39.6391C18.2493 39.5514 18.5664 39.4925 18.9737 39.4925H19.654L20.92 40.9877ZM28.7568 52.0989L36.4727 58.666L31.1714 58.6965C28.2556 58.7133 23.5306 58.7133 20.6711 58.6965L15.4721 58.666L18.1879 52.0723C19.6815 48.4458 20.9345 45.4906 20.9723 45.5052C21.01 45.5199 24.5131 48.487 28.7568 52.0989ZM56.505 54.9551C57.3392 56.9774 58.0217 58.653 58.0217 58.6784C58.0217 58.7038 55.5545 58.7228 52.539 58.7205L47.0563 58.7165L42.8344 55.0163C40.5123 52.9813 38.59 51.294 38.5628 51.267C38.5354 51.2399 42.2199 51.2314 46.7507 51.2479L54.9884 51.278L56.505 54.9551Z" fill="#61C5E7"/>
</svg>
