<svg width="110" height="110" viewBox="0 0 110 110" fill="none" xmlns="http://www.w3.org/2000/svg">
<g id="Icon">
<g id="Ellipse 4" filter="url(#filter0_d_582_743)">
<circle cx="50.0001" cy="48.1904" r="37.5" fill="white"/>
</g>
<path id="buy-home 1 (Traced)" fill-rule="evenodd" clip-rule="evenodd" d="M51.8979 26.5609C50.8243 26.8503 50.8051 26.8673 44.6015 33.0323C40.8403 36.77 38.6739 38.984 38.5583 39.2083C38.3204 39.6696 38.3044 40.5368 38.5259 40.9602C38.9093 41.6932 39.5033 42.0688 40.379 42.1317L40.9513 42.173V44.1527V46.1324L41.1747 46.3085C41.4685 46.5402 41.7358 46.5312 42.0275 46.2797L42.2654 46.0747L42.2901 43.6237L42.3148 41.1727L47.5467 35.9275L52.7787 30.6822L58.0543 35.9501L63.3298 41.218L63.3532 45.5914L63.3766 49.9648L63.5627 50.1513C63.8102 50.3993 64.2086 50.3938 64.4795 50.1387L64.6908 49.9397V46.0591V42.1784L65.1783 42.1765C65.7953 42.1742 66.1978 42.0026 66.627 41.5592C67.0023 41.1716 67.2347 40.6024 67.2335 40.0739C67.2316 39.2857 67.1957 39.2453 60.9055 32.958C56.9238 28.978 54.8658 26.9795 54.6252 26.8593C53.7812 26.4379 52.7663 26.3268 51.8979 26.5609ZM60.282 27.6668C59.8957 27.8343 59.4648 28.2527 59.2399 28.6789C59.1096 28.9259 59.0594 29.1777 59.0566 29.5998C59.0532 30.1104 59.0769 30.2006 59.2528 30.3435C59.5053 30.5487 59.8679 30.5518 60.1153 30.351C60.2542 30.2382 60.325 30.0585 60.3745 29.6925C60.4703 28.985 60.6075 28.8913 61.5484 28.8913C62.695 28.8913 62.6423 28.7662 62.6731 31.5559L62.6984 33.8358L62.9363 34.0408C63.2401 34.3026 63.5409 34.3014 63.8044 34.0372L64.0125 33.8286V31.4422C64.0125 29.632 63.9849 28.9898 63.8982 28.7824C63.7128 28.339 63.3284 27.946 62.8714 27.7326C62.503 27.5606 62.3153 27.5335 61.5114 27.5356C60.8707 27.5373 60.4859 27.5784 60.282 27.6668ZM53.9774 28.0754C54.2812 28.2411 56.0324 29.9423 60.1398 34.0613C65.3253 39.2616 65.8778 39.8417 65.8778 40.0857C65.8778 40.4992 65.5533 40.8268 65.155 40.8154C64.8475 40.8067 64.6042 40.5759 59.1457 35.1127C56.0169 31.9811 53.3736 29.3767 53.2718 29.3251C53.0339 29.2046 52.5235 29.2046 52.2855 29.3251C52.1837 29.3767 49.5364 31.9851 46.4027 35.1215C40.9064 40.6227 40.6942 40.8238 40.3988 40.8155C39.8655 40.8003 39.5396 40.2793 39.78 39.8257C39.9539 39.4972 51.3049 28.2546 51.6355 28.0831C52.1217 27.8311 52.327 27.7897 52.9539 27.8175C53.4117 27.8377 53.6532 27.8985 53.9774 28.0754ZM49.794 42.6613C49.0713 42.8105 48.4372 43.3115 48.1001 43.9996C47.8851 44.4385 47.8582 44.592 47.8312 45.5321C47.8116 46.2126 47.8363 46.6619 47.902 46.8209C48.0214 47.11 48.3807 47.2821 48.698 47.2023C49.0972 47.1018 49.1753 46.8808 49.1755 45.8496C49.1756 44.8082 49.2829 44.4686 49.7114 44.1535C49.942 43.9839 50.0527 43.9774 52.7213 43.9774C56.5357 43.9774 56.2972 43.7905 56.2972 46.7806V48.7926L56.545 49.041C56.8504 49.3472 57.0555 49.354 57.3929 49.0694L57.6537 48.8494V46.7472C57.6537 44.3555 57.609 44.1126 57.0508 43.477C56.8635 43.2637 56.5008 42.9891 56.2305 42.8561L55.7461 42.6176L52.9482 42.6026C51.4094 42.5944 49.9899 42.6208 49.794 42.6613ZM42.7741 47.5544C41.9346 47.7417 41.315 48.0093 40.2942 48.6255C38.7195 49.576 36.7547 51.3072 36.3942 52.0613C36.2856 52.2887 36.2843 52.3603 36.3847 52.5705C36.4491 52.705 36.6014 52.8629 36.7231 52.9215C37.0639 53.0852 37.3767 52.9247 37.8567 52.3404C38.8074 51.1827 40.9115 49.6207 42.2301 49.0935C44.1967 48.3074 46.3649 48.7247 48.1619 50.235C48.9536 50.9004 49.8238 51.366 50.5222 51.498C50.7734 51.5454 52.0325 51.5851 53.3201 51.5861C55.4179 51.5878 55.6966 51.6043 56.0004 51.7454C56.9457 52.1841 57.3405 53.3315 56.8525 54.2222C56.7382 54.4308 56.5966 54.7062 56.5375 54.8342C56.3093 55.3296 56.1088 55.3622 53.0042 55.4089L50.1775 55.4514L50.0155 55.652C49.7832 55.9399 49.8137 56.2319 50.1066 56.5255L50.3597 56.7792L53.18 56.7499C56.3451 56.717 56.3736 56.7122 57.2103 56.079C57.5912 55.7908 57.8526 55.6839 58.774 55.4403C61.5492 54.7064 63.661 53.8728 65.5386 52.77C66.6981 52.0889 67.7716 52.0039 68.8004 52.5116C69.7795 52.9949 69.9305 53.4251 69.3249 54.0068C68.312 54.9797 65.1976 57.1277 62.9103 58.4307C59.8337 60.1834 57.9166 60.8647 55.407 61.0973C54.894 61.1448 52.2805 61.2422 49.5993 61.3138C46.918 61.3854 44.5726 61.4647 44.3872 61.4902C44.2019 61.5156 43.9826 61.5979 43.8997 61.6731C43.6778 61.8744 43.7049 62.3415 43.953 62.5903C44.1383 62.7761 44.2095 62.791 44.7372 62.7549C45.0564 62.7331 47.4542 62.6584 50.0656 62.5889C52.6769 62.5195 55.0424 62.4418 55.3222 62.4163C57.8799 62.1832 59.7466 61.5965 62.2672 60.2336C64.6248 58.9589 66.7155 57.6341 68.6756 56.1732C70.7964 54.5925 71.0042 54.3382 71 53.3294C70.9969 52.612 70.8692 52.3337 70.3209 51.8498C69.5463 51.1663 68.5663 50.8219 67.3916 50.8203C66.4831 50.819 65.7407 51.0317 64.8587 51.5458C63.3496 52.4254 61.1599 53.3297 59.2105 53.8784C58.7112 54.019 58.2997 54.1338 58.2961 54.1337C58.2925 54.1335 58.2891 53.7798 58.2885 53.3475C58.2877 52.675 58.2548 52.4914 58.0606 52.0741C57.7713 51.4524 57.1543 50.8337 56.5073 50.5166L56.0004 50.2681L53.2874 50.225L50.5743 50.1819L50.0232 49.9175C49.7201 49.7721 49.3004 49.5009 49.0906 49.3148C48.2186 48.5416 47.3345 48.0468 46.1619 47.6756C45.3692 47.4247 43.6339 47.3627 42.7741 47.5544ZM32.9313 53.2815C32.3204 53.4121 31.8746 53.6863 30.0566 55.0504C28.478 56.2348 28.2732 56.416 28.2507 56.6475C28.2284 56.8764 28.8186 57.7005 33.0301 63.3194C35.6727 66.8453 37.8948 69.7779 37.968 69.8363C38.2742 70.0807 38.5363 69.956 40.1558 68.7946C41.0363 68.1632 41.938 67.4699 42.1595 67.2538C43.0442 66.391 43.3971 64.9736 42.9941 63.9024C42.8649 63.5592 41.8624 62.1541 39.3423 58.784C35.7101 53.927 35.5178 53.7055 34.6773 53.4105C34.2021 53.2438 33.3891 53.1837 32.9313 53.2815ZM34.1262 54.5691C34.3127 54.6208 34.5771 54.7429 34.7137 54.8403C35 55.0443 41.4018 63.5913 41.6914 64.1562C41.9537 64.6679 41.9411 65.1424 41.6508 65.6821C41.4531 66.0496 41.2016 66.2775 39.9991 67.1791C39.2189 67.7641 38.5468 68.2427 38.5055 68.2427C38.4274 68.2427 30.0457 57.1199 29.9649 56.909C29.9337 56.8276 30.3788 56.4512 31.3443 55.7429C33.0972 54.4567 33.345 54.3522 34.1262 54.5691Z" fill="#61C5E7"/>
</g>
<defs>
<filter id="filter0_d_582_743" x="0.500061" y="0.69043" width="109" height="109" filterUnits="userSpaceOnUse" color-interpolation-filters="sRGB">
<feFlood flood-opacity="0" result="BackgroundImageFix"/>
<feColorMatrix in="SourceAlpha" type="matrix" values="0 0 0 0 0 0 0 0 0 0 0 0 0 0 0 0 0 0 127 0" result="hardAlpha"/>
<feMorphology radius="1" operator="dilate" in="SourceAlpha" result="effect1_dropShadow_582_743"/>
<feOffset dx="5" dy="7"/>
<feGaussianBlur stdDeviation="8"/>
<feComposite in2="hardAlpha" operator="out"/>
<feColorMatrix type="matrix" values="0 0 0 0 0.525 0 0 0 0 0.525 0 0 0 0 0.525 0 0 0 0.16 0"/>
<feBlend mode="normal" in2="BackgroundImageFix" result="effect1_dropShadow_582_743"/>
<feBlend mode="normal" in="SourceGraphic" in2="effect1_dropShadow_582_743" result="shape"/>
</filter>
</defs>
</svg>
