<svg width="61" height="61" viewBox="0 0 61 61" fill="none" xmlns="http://www.w3.org/2000/svg">
<path id="excavator (Traced)" fill-rule="evenodd" clip-rule="evenodd" d="M49.8154 0.586816C48.5026 0.958118 47.2635 2.05001 46.8582 3.19256C46.7406 3.52446 46.5868 3.81932 46.5166 3.84784C37.8328 7.37997 27.5072 11.6593 27.0883 11.8994C25.7297 12.6785 24.562 13.9638 23.7186 15.6078C23.4674 16.0978 22.8719 17.6099 22.3954 18.9681L21.5292 21.4377L21.092 21.4402C20.8515 21.4415 20.3681 21.5763 20.0178 21.7396C18.85 22.2841 18.5911 22.8643 17.4 27.6069L16.4352 31.4483H9.62755C4.64761 31.4483 2.6817 31.4892 2.30556 31.6004C1.61936 31.8035 0.584494 32.8398 0.381744 33.527C0.169749 34.2456 0.169749 41.6616 0.381744 42.3802C0.584494 43.0674 1.61936 44.1037 2.30556 44.3068C2.599 44.3936 3.55079 44.4589 4.52294 44.4589H6.22614V45.5222C6.22614 46.4641 6.20041 46.5856 6.00053 46.5856C5.54756 46.5856 4.21513 47.119 3.48071 47.5944C2.38626 48.3028 1.53928 49.2497 0.969881 50.4012C-0.902465 54.1883 1.02884 58.7455 5.09284 60.1298L5.91383 60.4094L22.3412 60.4445C40.5826 60.4835 39.7041 60.5199 41.4237 59.6559C42.9384 58.8946 44.2591 57.3374 44.8491 55.6167C45.2266 54.5159 45.2537 52.5036 44.9051 51.4646C43.8712 48.3838 41.2157 46.4605 37.9961 46.4605H37.2071V45.4893V44.5181L37.854 44.3642C38.5773 44.1922 39.1216 43.8559 39.5677 43.3056C40.1562 42.5796 40.1938 42.2717 40.1997 38.1399L40.2052 34.2603L38.0159 28.781C36.8118 25.7674 35.6927 23.0894 35.5291 22.8298C35.1504 22.2292 34.5838 21.7512 34.0358 21.57L33.6064 21.428L34.0415 20.127C34.5255 18.6798 34.9532 17.9989 35.7346 17.432C36.0234 17.2225 38.4101 15.6914 41.0381 14.0298C46.0747 10.8452 46.2277 10.7207 45.9629 10.0229C45.8041 9.60478 45.285 9.26 44.9208 9.33093C44.7664 9.36108 42.3914 10.8039 39.6431 12.5373C33.2233 16.5862 33.0482 16.7562 31.9617 20.0015L31.5009 21.3776L27.561 21.4106L23.6212 21.4437L24.3971 19.2839C24.8238 18.0961 25.2748 16.9271 25.3991 16.6863C26.1015 15.3266 27.2469 14.0536 28.2126 13.5595C28.81 13.2539 46.4076 6.05264 46.5572 6.05264C46.623 6.05264 46.7317 6.20739 46.7988 6.39667C47.04 7.07697 54.93 28.8881 55.0032 29.077C55.0528 29.2048 53.5783 31.2728 50.6398 35.1966C45.8636 41.5743 45.8895 41.5306 46.5176 42.1596L46.8335 42.476L50.7337 42.4275C54.4102 42.3817 54.6784 42.3626 55.4112 42.095C57.4728 41.3421 59.1021 39.7074 59.8229 37.6687C60.044 37.0431 60.1103 36.5173 60.1604 34.9917L60.2227 33.0931L59.9012 32.7711C59.5141 32.3834 58.969 32.3499 58.5515 32.6879C58.2717 32.9146 58.2531 33.0227 58.1882 34.8018C58.1209 36.6533 58.1142 36.6883 57.6553 37.6181C56.9545 39.0383 55.7835 39.982 54.2954 40.3256C54.0006 40.3938 52.7329 40.4509 51.4783 40.4526L49.1973 40.4556L52.9474 35.4516L56.6974 30.4475H58.1385C59.5021 30.4475 59.5961 30.431 59.8862 30.1404C60.0549 29.9715 60.1929 29.7233 60.1929 29.5885C60.1929 28.9615 55.2929 3.33718 55.0853 2.87781C54.4463 1.46528 53.0047 0.535149 51.3465 0.465593C50.8094 0.443074 50.1348 0.496493 49.8154 0.586816ZM52.0457 2.61897C52.647 2.87055 53.1589 3.36695 53.3175 3.85272C53.4328 4.20538 57.9443 28.0772 57.9443 28.3343C57.9443 28.3957 57.7053 28.4451 57.4134 28.4441L56.8824 28.4425L52.7226 16.9035C50.4347 10.5571 48.5329 5.24623 48.4967 5.10149C48.3814 4.64274 48.6996 3.79142 49.1771 3.28113C49.9223 2.48461 51.0836 2.21652 52.0457 2.61897ZM50.5057 4.73344C49.886 5.35394 50.3251 6.42794 51.1984 6.42794C51.712 6.42794 52.1978 5.94142 52.1978 5.42713C52.1978 4.91284 51.712 4.42631 51.1984 4.42631C50.9551 4.42631 50.699 4.53978 50.5057 4.73344ZM33.6913 23.7354C33.8429 23.897 34.9207 26.4151 36.0866 29.3312L38.2064 34.6334V38.2382V41.8431L37.8998 42.1501L37.5932 42.4573H20.2175H2.84185L2.53529 42.1501L2.22861 41.8431V37.9536V34.064L2.53529 33.757L2.84185 33.4499H10.2042C17.0396 33.4499 17.5859 33.4342 17.8374 33.2302C18.0554 33.0535 18.3034 32.2281 19.1066 29.0081C19.6556 26.8066 20.1584 24.8018 20.224 24.5528C20.2896 24.3037 20.4596 23.9518 20.6018 23.7709L20.8603 23.4418H27.138H33.4158L33.6913 23.7354ZM22.6009 25.6623C22.3946 25.831 22.1313 26.6383 21.4536 29.18C20.2611 33.6526 20.1476 33.4499 23.8462 33.4499H26.2138V35.1031V36.7565L27.3612 38.4889C27.9924 39.4418 28.6071 40.2741 28.7272 40.3385C28.8473 40.403 30.4417 40.4556 32.2701 40.4556H35.5944L35.901 40.1485C36.2043 39.8449 36.2077 39.8166 36.2077 37.543V35.2446L34.4774 31.1259C33.5257 28.8606 32.6225 26.719 32.4702 26.3667C32.2992 25.9712 32.0748 25.672 31.8836 25.5848C31.6722 25.4883 30.1904 25.4434 27.2212 25.4434C23.2611 25.4434 22.8444 25.4632 22.6009 25.6623ZM26.2138 29.4467V31.4483H24.5898C23.6966 31.4483 22.9662 31.4061 22.9667 31.3545C22.9672 31.3028 23.1921 30.4272 23.4664 29.4085C23.7407 28.3899 23.9652 27.5314 23.9652 27.5007C23.9652 27.4701 24.4711 27.445 25.0895 27.445H26.2138V29.4467ZM32.4912 31.5438L34.2089 35.6397V37.0469V38.454H31.9768H29.7446L28.9786 37.2906L28.2126 36.1272V31.7861V27.445L29.4931 27.4464L30.7735 27.4478L32.4912 31.5438ZM4.53406 35.7587C4.23549 36.0575 4.22737 36.116 4.22737 37.9536C4.22737 39.7912 4.23549 39.8496 4.53406 40.1485C4.72732 40.3422 4.98341 40.4556 5.22676 40.4556C5.47011 40.4556 5.7262 40.3422 5.91946 40.1485C6.21802 39.8496 6.22614 39.7912 6.22614 37.9536C6.22614 36.116 6.21802 36.0575 5.91946 35.7587C5.7262 35.565 5.47011 35.4516 5.22676 35.4516C4.98341 35.4516 4.72732 35.565 4.53406 35.7587ZM8.5316 35.7587C8.23303 36.0575 8.22491 36.116 8.22491 37.9536C8.22491 39.7912 8.23303 39.8496 8.5316 40.1485C8.72485 40.3422 8.98094 40.4556 9.22429 40.4556C9.46764 40.4556 9.72374 40.3422 9.91699 40.1485C10.2156 39.8496 10.2237 39.7912 10.2237 37.9536C10.2237 36.116 10.2156 36.0575 9.91699 35.7587C9.72374 35.565 9.46764 35.4516 9.22429 35.4516C8.98094 35.4516 8.72485 35.565 8.5316 35.7587ZM12.5291 35.7587C12.2309 36.0572 12.2224 36.1172 12.2224 37.9341C12.2224 39.5809 12.2504 39.8371 12.4589 40.0948C12.6392 40.3178 12.8208 40.3874 13.2218 40.3874C13.6228 40.3874 13.8045 40.3178 13.9847 40.0948C14.1932 39.8371 14.2212 39.5809 14.2212 37.9341C14.2212 36.1172 14.2127 36.0572 13.9145 35.7587C13.7213 35.565 13.4652 35.4516 13.2218 35.4516C12.9785 35.4516 12.7224 35.565 12.5291 35.7587ZM35.2083 45.4597V46.4605H32.5168C29.8256 46.4605 29.8252 46.4605 29.5187 46.7676C29.1464 47.1403 29.1183 47.693 29.4506 48.1042L29.6892 48.3996L34.5412 48.4664C39.949 48.541 39.958 48.5423 41.1749 49.4633C42.523 50.4837 43.1418 51.7643 43.1393 53.5288C43.1379 54.5299 43.0942 54.7472 42.744 55.4904C42.1965 56.6522 41.488 57.3774 40.3501 57.9405L39.4062 58.4077H22.716H6.02577L5.07398 57.9366C2.55653 56.6907 1.53453 53.7591 2.74141 51.2459C3.32306 50.0344 4.76055 48.9078 6.12733 48.5921C6.4565 48.5161 10.5099 48.467 16.6316 48.4651L26.6 48.4621L26.9065 48.155C27.0999 47.9615 27.2132 47.705 27.2132 47.4613C27.2132 47.2176 27.0999 46.9612 26.9065 46.7676L26.6 46.4605H17.4124H8.22491V45.4597V44.4589H21.7166H35.2083V45.4597ZM8.22491 50.6273C7.98443 50.7032 7.50473 51.0494 7.15882 51.3964C6.27599 52.2825 6.03214 53.2174 6.37805 54.39C6.5808 55.0771 7.61566 56.1135 8.30186 56.3165C9.47314 56.6631 10.4069 56.4187 11.2898 55.5346C12.5536 54.269 12.5536 52.6634 11.2898 51.3978C10.4107 50.5176 9.38757 50.2604 8.22491 50.6273ZM17.2194 50.6273C16.6062 50.8208 15.5605 51.9052 15.3725 52.5425C15.0265 53.7154 15.2704 54.6505 16.1533 55.5346C17.3288 56.7118 18.8801 56.7909 20.1106 55.7362C21.5015 54.544 21.5757 52.6911 20.2842 51.3978C19.4051 50.5176 18.382 50.2604 17.2194 50.6273ZM26.2138 50.6273C25.6007 50.8208 24.555 51.9052 24.367 52.5425C24.0203 53.7173 24.3833 54.9322 25.3214 55.7362C26.8363 57.0347 29.0525 56.5163 29.9148 54.6617C30.2934 53.8474 30.2934 53.085 29.9148 52.2707C29.2483 50.8376 27.7109 50.1548 26.2138 50.6273ZM35.2083 50.6273C34.5952 50.8208 33.5494 51.9052 33.3614 52.5425C33.0154 53.7154 33.2594 54.6505 34.1422 55.5346C34.7892 56.1825 35.4219 56.4687 36.2077 56.4687C37.7556 56.4687 39.2058 55.0163 39.2058 53.4662C39.2058 52.6793 38.9201 52.0457 38.2731 51.3978C37.3941 50.5176 36.3709 50.2604 35.2083 50.6273ZM9.91699 52.7725C10.5367 53.393 10.0976 54.467 9.22429 54.467C8.71074 54.467 8.22491 53.9805 8.22491 53.4662C8.22491 52.9519 8.71074 52.4654 9.22429 52.4654C9.46764 52.4654 9.72374 52.5789 9.91699 52.7725ZM18.9114 52.7725C19.5312 53.393 19.0921 54.467 18.2188 54.467C17.7052 54.467 17.2194 53.9805 17.2194 53.4662C17.2194 52.9519 17.7052 52.4654 18.2188 52.4654C18.4621 52.4654 18.7182 52.5789 18.9114 52.7725ZM27.9059 52.7725C28.5257 53.393 28.0865 54.467 27.2132 54.467C26.6997 54.467 26.2138 53.9805 26.2138 53.4662C26.2138 52.9519 26.6997 52.4654 27.2132 52.4654C27.4566 52.4654 27.7127 52.5789 27.9059 52.7725ZM36.9004 52.7725C37.0938 52.9661 37.2071 53.2225 37.2071 53.4662C37.2071 53.7099 37.0938 53.9664 36.9004 54.1599C36.7071 54.3536 36.451 54.467 36.2077 54.467C35.9643 54.467 35.7082 54.3536 35.515 54.1599C35.3216 53.9664 35.2083 53.7099 35.2083 53.4662C35.2083 53.2225 35.3216 52.9661 35.515 52.7725C35.7082 52.5789 35.9643 52.4654 36.2077 52.4654C36.451 52.4654 36.7071 52.5789 36.9004 52.7725Z" fill="#61C5E7"/>
</svg>
