<svg width="46" height="46" viewBox="0 0 46 46" fill="none" xmlns="http://www.w3.org/2000/svg">
<path id="house 1 (Traced)" fill-rule="evenodd" clip-rule="evenodd" d="M25.8764 2.64187C22.6579 4.0508 19.9328 5.29149 19.8204 5.39893C19.6227 5.58812 19.6163 5.64847 19.6163 7.32571C19.6163 9.04297 19.6181 9.05894 19.839 9.27981C20.1295 9.57036 20.377 9.56074 21.1133 9.23035C21.447 9.08063 21.7365 8.95813 21.7568 8.95813C21.7771 8.95813 21.7937 9.8973 21.7937 11.0452V13.1322H11.8552H1.91652L1.69388 13.355C1.47704 13.5717 1.47114 13.6141 1.47114 14.947C1.47114 16.2799 1.47704 16.3223 1.69388 16.539C1.90835 16.7536 1.96161 16.7618 3.14549 16.7618H4.37437V18.5766V20.3914H3.14549C1.96161 20.3914 1.90835 20.3996 1.69388 20.6142C1.47704 20.831 1.47114 20.8733 1.47114 22.2062C1.47114 23.5391 1.47704 23.5815 1.69388 23.7983C1.87669 23.9812 2.00643 24.021 2.41968 24.021H2.92276V32.7321V41.4432H1.69388C0.509995 41.4432 0.456739 41.4514 0.242263 41.666C0.0254284 41.8827 0.0195312 41.9251 0.0195312 43.258C0.0195312 44.5909 0.0254284 44.6333 0.242263 44.85L0.464904 45.0728H22.5195H44.5742L44.7968 44.85C45.0136 44.6333 45.0195 44.5909 45.0195 43.258C45.0195 41.9251 45.0136 41.8827 44.7968 41.666C44.5823 41.4514 44.5291 41.4432 43.3452 41.4432H42.1163V32.7321V24.021H42.6194C43.0326 24.021 43.1624 23.9812 43.3452 23.7983C43.562 23.5815 43.5679 23.5391 43.5679 22.2062C43.5679 20.8733 43.562 20.831 43.3452 20.6142C43.1624 20.4313 43.0326 20.3914 42.6194 20.3914H42.1163V14.6748C42.1163 11.5306 42.1329 8.95813 42.1532 8.95813C42.1736 8.95813 42.4631 9.08063 42.7967 9.23035C43.533 9.56074 43.7806 9.57036 44.071 9.27981C44.2918 9.05904 44.2937 9.04216 44.2937 7.33896C44.2937 5.83485 44.2739 5.59738 44.135 5.43269C43.9482 5.21146 32.217 0.0620338 31.9244 0.0728319C31.8165 0.0768245 29.0949 1.23295 25.8764 2.64187ZM37.3181 3.93048C40.2316 5.20783 42.6664 6.27385 42.7287 6.29944C42.8047 6.33074 42.8421 6.56331 42.8421 7.00567V7.66517L37.4827 5.31726C34.535 4.02585 32.0505 2.96927 31.9615 2.96927C31.8365 2.96927 25.3286 5.77777 21.5896 7.44513L21.0679 7.67779V7.01429V6.35089L26.4434 3.98928C29.3999 2.69042 31.8644 1.62331 31.9199 1.61796C31.9754 1.61261 34.4046 2.65322 37.3181 3.93048ZM36.3186 6.39644L40.6193 8.28103L40.6426 14.3362L40.666 20.3914H31.955H23.2441L23.2674 14.3397L23.2907 8.28792L27.5548 6.40878C29.9001 5.37525 31.8637 4.52555 31.9184 4.52074C31.9731 4.51584 33.9532 5.35991 36.3186 6.39644ZM24.1939 9.72534L23.9711 9.94802V12.7692V15.5904L24.1939 15.8131L24.4165 16.0359H27.6002H30.7838L31.0065 15.8131L31.2292 15.5904V12.7692V9.94802L31.0065 9.72534L30.7838 9.50257H27.6002H24.4165L24.1939 9.72534ZM32.9036 9.72534L32.6808 9.94802V12.7692V15.5904L32.9036 15.8131L33.1262 16.0359H36.3099H39.4935L39.7162 15.8131L39.9389 15.5904V12.7692V9.94802L39.7162 9.72534L39.4935 9.50257H36.3099H33.1262L32.9036 9.72534ZM29.7776 12.7692V14.584H27.6002H25.4228V12.7692V10.9544H27.6002H29.7776V12.7692ZM38.4873 12.7692V14.584H36.3099H34.1324V12.7692V10.9544H36.3099H38.4873V12.7692ZM21.7937 14.947V15.31H12.3582H2.92276V14.947V14.584H12.3582H21.7937V14.947ZM8.72921 18.5766V20.3914H7.2776H5.82598V18.5766V16.7618H7.2776H8.72921V18.5766ZM13.084 18.5766V20.3914H11.6324H10.1808V18.5766V16.7618H11.6324H13.084V18.5766ZM17.4389 18.5766V20.3914H15.9873H14.5357V18.5766V16.7618H15.9873H17.4389V18.5766ZM21.7937 18.5766V20.3914H20.3421H18.8905V18.5766V16.7618H20.3421H21.7937V18.5766ZM42.1163 22.2062V22.5692H22.5195H2.92276V22.2062V21.8433H22.5195H42.1163V22.2062ZM21.7937 32.7321V41.4432H21.0679H20.3421V36.3617C20.3421 31.839 20.3575 31.2803 20.4823 31.2803C20.5594 31.2803 20.7227 31.18 20.8452 31.0575C21.062 30.8407 21.0679 30.7984 21.0679 29.4655C21.0679 28.1326 21.062 28.0902 20.8452 27.8734L20.6225 27.6507H13.084H5.54555L5.32291 27.8734C5.10607 28.0902 5.10018 28.1326 5.10018 29.4655C5.10018 30.7984 5.10607 30.8407 5.32291 31.0575C5.44539 31.18 5.6087 31.2803 5.68581 31.2803C5.81056 31.2803 5.82598 31.839 5.82598 36.3617V41.4432H5.10018H4.37437V32.7321V24.021H13.084H21.7937V32.7321ZM40.6647 32.7321V41.4432H36.3099H31.955V36.5845V31.7257L31.7323 31.503L31.5096 31.2803H27.9631H24.4165L24.1939 31.503L23.9711 31.7257V36.5845V41.4432H23.6082H23.2453V32.7321V24.021H31.955H40.6647V32.7321ZM19.6163 29.4655V29.8284H13.084H6.55179V29.4655V29.1025H13.084H19.6163V29.4655ZM18.8905 36.3617V41.4432H13.084H7.2776V36.3617V31.2803H13.084H18.8905V36.3617ZM32.9036 31.503L32.6808 31.7257V34.5469V37.3681L32.9036 37.5908L33.1262 37.8136H36.3099H39.4935L39.7162 37.5908L39.9389 37.3681V34.5469V31.7257L39.7162 31.503L39.4935 31.2803H36.3099H33.1262L32.9036 31.503ZM30.5034 37.0877V41.4432H27.9631H25.4228V37.0877V32.7321H27.9631H30.5034V37.0877ZM38.4873 34.5469V36.3617H36.3099H34.1324V34.5469V32.7321H36.3099H38.4873V34.5469ZM28.5487 35.8586C28.339 36.0683 28.326 36.1401 28.326 37.0877C28.326 38.0352 28.339 38.107 28.5487 38.3167C28.6891 38.4572 28.8751 38.5395 29.0518 38.5395C29.2285 38.5395 29.4145 38.4572 29.5549 38.3167C29.7645 38.107 29.7776 38.0352 29.7776 37.0877C29.7776 36.1401 29.7645 36.0683 29.5549 35.8586C29.4145 35.7181 29.2285 35.6358 29.0518 35.6358C28.8751 35.6358 28.6891 35.7181 28.5487 35.8586ZM43.5679 43.258V43.621H22.5195H1.47114V43.258V42.895H22.5195H43.5679V43.258Z" fill="#61C5E7"/>
</svg>
