<svg width="49" height="46" viewBox="0 0 49 46" fill="none" xmlns="http://www.w3.org/2000/svg">
<path id="money 1 (Traced)" fill-rule="evenodd" clip-rule="evenodd" d="M11.5076 1.9577C7.7233 4.01819 7.37098 4.26782 7.16147 5.03761C7.00559 5.61056 7.10919 7.60752 7.3539 8.74729C7.9537 11.5412 9.5476 14.6498 11.4496 16.7352L11.9483 17.282L11.7093 18.3643C11.142 20.9341 11.128 23.3842 11.6662 25.9149C11.7727 26.4156 11.8665 26.8593 11.8745 26.9008C11.8826 26.9424 11.5224 27.1163 11.0741 27.2875C10.6258 27.4585 10.1214 27.697 9.95325 27.8173L9.64739 28.0361L9.54569 27.7675C9.17934 26.7996 8.64013 26.1868 7.78274 25.764L7.21442 25.4837H4.92475H2.63508L2.08384 25.7641C1.43328 26.095 0.748576 26.7955 0.457883 27.4274C0.250095 27.8792 0.25 27.8831 0.25 35.1144V42.3494L0.514457 42.8902C0.836538 43.5488 1.46496 44.1492 2.18907 44.4902C2.72609 44.7431 2.74822 44.7451 4.92475 44.7451C7.10127 44.7451 7.12341 44.7431 7.66043 44.4902C8.73229 43.9855 9.4998 43.01 9.61877 42.0016C9.65331 41.7085 9.71551 41.542 9.78029 41.5689C9.83829 41.593 11.2375 42.2235 12.8896 42.9698C14.5417 43.7162 16.1945 44.4081 16.5626 44.5073C17.5792 44.7815 18.549 44.8872 20.9525 44.9858C23.7852 45.102 34.5785 45.1017 35.4697 44.9853C36.2959 44.8775 37.104 44.6033 37.6526 44.2445C38.0245 44.0013 47.0081 35.7335 47.9898 34.7311C48.222 34.4939 48.5444 34.0196 48.706 33.677C48.9667 33.1247 49 32.9564 49 32.1917C49 31.4201 48.9678 31.2608 48.6943 30.68C48.1658 29.5575 47.167 28.784 45.8765 28.4977C45.5748 28.4307 45.3279 28.3688 45.3279 28.3601C45.3279 28.3514 45.4368 28.024 45.5698 27.6326C46.0668 26.1701 46.2943 24.7598 46.3496 22.7983C46.4188 20.348 46.2262 18.8945 45.5498 16.7634C44.8697 14.6198 43.2751 11.7663 42.5987 11.4824C41.948 11.2093 41.321 11.6343 41.321 12.3486C41.321 12.6003 41.477 12.9232 41.9461 13.6424C43.013 15.278 43.7653 17.1119 44.1994 19.1352C44.3779 19.9671 44.4108 20.4252 44.4144 22.1297C44.4192 24.4125 44.3033 25.2466 43.7353 27.0165C43.3035 28.3616 43.0265 28.9086 42.6355 29.1881C42.4635 29.311 40.8416 30.7876 39.0313 32.4693C37.2211 34.151 35.5897 35.5958 35.406 35.6801C35.1133 35.8142 34.3063 35.8368 28.8709 35.8626C24.6411 35.8828 22.5582 35.8594 22.319 35.789C21.3159 35.4941 21.1727 34.1993 22.0876 33.6961C22.3473 33.5532 22.8444 33.5274 26.1543 33.4853L29.9251 33.4374L30.5546 33.126C31.7056 32.5565 32.4447 31.4638 32.5035 30.2449C32.5323 29.6475 32.5502 29.6052 32.8526 29.4181C33.5094 29.0119 33.8892 28.6557 34.2597 28.0986C35.8709 25.6749 34.8174 22.4822 32.077 21.4839C31.6057 21.3121 31.2249 21.2819 28.8709 21.2297C25.8749 21.1631 25.9113 21.1712 25.2294 20.4281C24.1508 19.2526 24.4608 17.4535 25.8781 16.6651L26.3904 16.3801L30.4773 16.3322L34.5642 16.2842L34.7943 16.0154C35.1189 15.6362 35.1009 15.1755 34.7462 14.7765L34.4679 14.4635L32.1226 14.4348L29.7772 14.4061V13.0618V11.7177L29.4984 11.4376C29.184 11.1218 28.7877 11.0719 28.36 11.294C27.9481 11.508 27.8692 11.8102 27.8692 13.1743V14.4156H27.3097C24.9385 14.4156 23.0692 15.9422 22.7 18.1805C22.3154 20.5115 24.0679 22.8233 26.4556 23.1348C26.8395 23.1849 28.079 23.2272 29.21 23.2288C31.2283 23.2317 31.2754 23.2364 31.7621 23.48C33.1571 24.1782 33.5392 25.9655 32.5511 27.1696C32.4004 27.3531 32.1284 27.5838 31.9464 27.6822L31.6156 27.8612L31.2449 27.5633C31.0411 27.3993 30.6597 27.1663 30.3974 27.0453L29.9203 26.8253L21.8858 26.7992L13.8511 26.7732L13.7558 26.4159C13.1582 24.1753 13.0446 21.8293 13.4251 19.588C13.5098 19.0885 13.5865 18.6716 13.5954 18.6613C13.6043 18.6511 13.9054 18.7913 14.2645 18.9728C15.1437 19.4172 15.5398 19.4119 16.4134 18.9435C18.4892 17.8305 20.4622 15.5369 21.9072 12.5568C22.6227 11.0811 23.0134 9.93834 23.2842 8.5288C23.3922 7.96639 23.4806 7.48831 23.4806 7.46627C23.4806 7.44432 23.8409 7.31591 24.2813 7.18108C27.5087 6.19224 31.0554 6.29535 34.2135 7.46972C35.707 8.02513 36.0357 8.0282 36.3626 7.48946C36.7384 6.87041 36.4965 6.31154 35.7016 5.96254C32.2696 4.45536 27.7234 4.15618 24.1413 5.20157L23.514 5.3847L23.3972 4.94561C23.3201 4.65612 23.1571 4.39058 22.9192 4.16653C22.4481 3.72294 15.8171 0.12902 15.3714 0.0756437C15.0825 0.0411457 14.5613 0.294994 11.5076 1.9577ZM18.4132 3.78629C20.0722 4.68649 21.4688 5.46117 21.5169 5.50793C21.6461 5.63375 21.5867 7.25976 21.4225 8.08876C21.0541 9.94859 20.1342 12.1048 18.949 13.8867C18.2516 14.9354 16.7815 16.4592 15.9522 16.9933L15.3404 17.3872L14.8758 17.1232C13.387 16.2773 11.6123 14.1333 10.4604 11.7888C9.57164 9.97992 9.1096 8.29987 9.00762 6.50607L8.95295 5.54415L12.0906 3.84733C13.8163 2.91406 15.2662 2.15032 15.3126 2.15012C15.3591 2.14984 16.7543 2.88618 18.4132 3.78629ZM16.3646 8.08761L14.8698 9.6175L14.2858 9.0916C13.9646 8.80239 13.6053 8.5405 13.4872 8.50964C12.9122 8.35929 12.3185 8.81935 12.3185 9.41531C12.3185 9.87978 12.4528 10.0556 13.6098 11.1052C14.4444 11.8624 14.543 11.9241 14.9177 11.9241C15.3191 11.9241 15.3408 11.9057 17.2055 9.98357C18.4153 8.73656 19.1165 7.94033 19.1677 7.75557C19.3505 7.09551 18.9484 6.55772 18.272 6.55772C17.8652 6.55772 17.8386 6.57909 16.3646 8.08761ZM38.6424 8.56273C38.0681 9.13961 38.379 10.0594 39.1849 10.1679C39.5248 10.2137 39.6193 10.1825 39.8981 9.9323C40.1665 9.69139 40.2196 9.57745 40.2196 9.2409C40.2196 8.90742 40.1662 8.79013 39.9101 8.56033C39.4866 8.18018 39.0224 8.18105 38.6424 8.56273ZM6.97401 27.5202C7.15661 27.6123 7.40351 27.8343 7.52257 28.0134L7.73914 28.339L7.73876 35.1046C7.73847 41.7268 7.73437 41.877 7.54547 42.1882C7.42708 42.3832 7.18475 42.5807 6.91848 42.699C6.52657 42.8731 6.32155 42.8887 4.79834 42.8602C2.96603 42.8258 2.76015 42.7721 2.34887 42.2216C2.16283 41.9725 2.15739 41.7965 2.13278 35.2102C2.10874 28.7691 2.11589 28.4388 2.2859 28.119C2.38388 27.9345 2.63136 27.6873 2.8358 27.5695C3.1824 27.37 3.3236 27.3554 4.92475 27.3541C6.37135 27.3528 6.69429 27.3791 6.97401 27.5202ZM29.7849 28.9166C30.7794 29.4449 30.8399 30.7082 29.8988 31.296C29.5406 31.5197 29.5188 31.5211 25.7703 31.5688L22.0019 31.6167L21.4072 31.8927C20.2455 32.4315 19.542 33.4795 19.5339 34.6832C19.5258 35.8839 20.2263 36.9584 21.3677 37.4959L21.9065 37.7497L28.316 37.7762C35.3443 37.8053 35.6311 37.7869 36.5536 37.2494C36.805 37.1028 38.5202 35.5816 40.3652 33.8686C42.2102 32.1557 43.8562 30.6812 44.0229 30.5919C44.7583 30.1982 45.7863 30.2982 46.423 30.8254C46.8145 31.1496 47.1352 31.7502 47.1385 32.1658C47.1444 32.8984 47.0327 33.0178 41.7833 37.89C38.653 40.7955 36.5785 42.6513 36.3212 42.7763C35.6504 43.1025 34.5796 43.1626 29.491 43.16C21.2709 43.1558 17.8729 42.985 16.6473 42.5145C16.3915 42.4164 14.712 41.6733 12.9148 40.8633L9.6472 39.3905V34.9622V30.5339L10.1575 30.0654C10.4382 29.8077 10.947 29.4589 11.2881 29.2902C12.4889 28.6964 12.2495 28.7107 21.1998 28.7019L29.3656 28.6939L29.7849 28.9166Z" fill="#61C5E7"/>
</svg>
