<svg width="110" height="110" viewBox="0 0 110 110" fill="none" xmlns="http://www.w3.org/2000/svg">
<g id="Icon">
<g id="Ellipse 4" filter="url(#filter0_d_582_721)">
<circle cx="50" cy="48.1904" r="37.5" fill="white"/>
</g>
<path id="house (2) 1 (Traced)" fill-rule="evenodd" clip-rule="evenodd" d="M44.2779 34.8578C40.6785 37.216 39.4237 38.0727 39.3653 38.2115C39.219 38.5595 39.5858 38.9782 39.94 38.8675C40.0152 38.844 42.1414 37.4766 44.6648 35.8289C47.1883 34.1811 49.2941 32.8083 49.3444 32.7782C49.4761 32.6993 65.6363 43.284 65.7459 43.5209C65.8598 43.7671 65.8466 44.0469 65.7121 44.236C65.5657 44.4419 65.1947 44.5957 64.9759 44.5413C64.8827 44.5182 61.4251 42.2853 57.2925 39.5795C50.9262 35.4112 49.7328 34.6547 49.4796 34.6266C49.1838 34.5937 49.1053 34.6428 41.6864 39.4981C37.5645 42.1956 34.097 44.4422 33.9809 44.4904C33.6902 44.6112 33.4138 44.5432 33.206 44.2999C33.0067 44.0666 32.973 43.6665 33.135 43.4557C33.1899 43.3843 34.2103 42.6824 35.4025 41.8959C37.7362 40.3563 37.8216 40.2783 37.6009 39.8891C37.5199 39.7463 37.4326 39.6981 37.2245 39.6812C36.9755 39.6609 36.7881 39.7673 34.9063 40.9984C33.7803 41.735 32.737 42.4447 32.5879 42.5756C31.3942 43.6232 32.1396 45.5626 33.7346 45.5591C34.2164 45.5581 34.4957 45.4353 35.4481 44.8058C35.8579 44.535 36.21 44.3134 36.2307 44.3134C36.2513 44.3134 36.2682 48.2131 36.2682 52.9793V61.6451H35.2253C33.9705 61.6451 33.6026 61.7309 33.2265 62.111C32.6206 62.7236 32.5847 63.5565 33.1369 64.192C33.6177 64.7453 32.1205 64.7008 49.546 64.6797L65.111 64.6608L65.4162 64.4524C65.8052 64.1867 66.1091 63.6249 66.1069 63.1752C66.1037 62.5316 65.5834 61.8795 64.9471 61.7217C64.7774 61.6796 64.1775 61.6451 63.614 61.6451H62.5895V60.3373C62.5895 59.1191 62.5795 59.0169 62.4436 58.8467C62.2676 58.6261 61.9749 58.6054 61.7352 58.7965C61.5723 58.9263 61.5686 58.9554 61.5473 60.287L61.5255 61.6451H59.1017H56.6778V59.7733V57.9015H61.8176C65.9753 57.9015 67.001 57.8836 67.1851 57.8078C67.4834 57.685 67.8419 57.2768 67.9389 56.9494C67.9927 56.7676 68.0098 55.2449 67.9948 51.9394L67.9734 47.1905L67.8064 46.9259C67.7146 46.7803 67.5111 46.5775 67.3542 46.4753L67.0689 46.2892L61.8831 46.2702L56.6973 46.2511L56.6622 45.4729C56.619 44.5171 56.4599 44.0948 55.9891 43.6866C55.6638 43.4045 55.1461 43.2042 54.7424 43.2042C54.3387 43.2042 53.8209 43.4045 53.4956 43.6866C53.0249 44.0948 52.8658 44.5171 52.8226 45.4729L52.7875 46.2511L47.6017 46.2702L42.4159 46.2892L42.1306 46.4753C41.9737 46.5775 41.7702 46.7803 41.6783 46.9259L41.5113 47.1905L41.4899 51.9394C41.475 55.2449 41.4921 56.7676 41.5459 56.9494C41.6277 57.2255 41.9583 57.6422 42.2072 57.7828C42.2974 57.8337 42.785 57.8805 43.4467 57.9015L44.5376 57.9361L44.5563 59.7906L44.5751 61.6451H40.9494H37.3239V52.6063V43.5675L43.3755 39.6106L49.4272 35.6538L55.4805 39.6156L61.5339 43.5774V44.3235C61.5339 44.7338 61.5696 45.1469 61.6134 45.2414C61.7231 45.4786 62.0198 45.5929 62.2535 45.488C62.4921 45.381 62.5895 45.1499 62.5895 44.6915C62.5895 44.4836 62.6047 44.3134 62.6231 44.3134C62.6415 44.3134 63.0353 44.5599 63.4982 44.8612C64.4747 45.4968 64.7083 45.5875 65.2659 45.5477C66.3486 45.4706 67.0873 44.4186 66.7829 43.3873C66.7192 43.1711 66.5664 42.8828 66.4408 42.7415C66.3077 42.5915 62.8287 40.2682 58.015 37.1146C50.26 32.0342 49.7969 31.7419 49.464 31.7168L49.1122 31.6904L44.2779 34.8578ZM48.8658 37.9424C47.0539 38.2506 45.836 40.0975 46.2965 41.839C46.5839 42.9259 47.3521 43.7475 48.4195 44.1092C48.928 44.2815 49.8934 44.2924 50.374 44.131C51.5869 43.724 52.4242 42.7543 52.6159 41.535C52.8554 40.0103 51.8553 38.4662 50.3503 38.0373C49.8813 37.9036 49.3089 37.867 48.8658 37.9424ZM48.9362 39.7725V40.5698H48.0908H47.2452L47.355 40.3098C47.5916 39.7495 47.9419 39.3842 48.5122 39.1031C48.9352 38.8946 48.9362 38.8962 48.9362 39.7725ZM50.3989 39.1438C50.9327 39.4147 51.3981 39.933 51.5084 40.3791L51.5555 40.5698H50.7385H49.9215V39.7725C49.9215 39.2701 49.9484 38.9753 49.9942 38.9753C50.0342 38.9753 50.2163 39.0511 50.3989 39.1438ZM48.9362 42.4116C48.9362 43.2108 48.9356 43.2134 48.7779 43.1671C48.1438 42.9807 47.3175 42.14 47.3175 41.6812C47.3175 41.6362 47.6174 41.6097 48.1269 41.6097H48.9362V42.4116ZM51.5402 41.6706C51.5402 41.9996 50.9927 42.6945 50.5256 42.9582C49.9059 43.3081 49.9215 43.3222 49.9215 42.4116V41.6097H50.7309C51.176 41.6097 51.5402 41.6371 51.5402 41.6706ZM55.2269 44.3889C55.5453 44.6355 55.6221 44.8696 55.6221 45.5925V46.2546H54.7424H53.8627V45.5925C53.8627 44.8696 53.9395 44.6355 54.2578 44.3889C54.3804 44.2939 54.547 44.2441 54.7424 44.2441C54.9378 44.2441 55.1043 44.2939 55.2269 44.3889ZM66.8685 47.3777C66.9325 47.4407 66.953 48.5813 66.953 52.087C66.953 56.2001 66.9407 56.7251 66.8424 56.822C66.7427 56.9202 65.548 56.9309 54.7424 56.9309C43.9368 56.9309 42.7421 56.9202 42.6424 56.822C42.5441 56.7251 42.5318 56.2001 42.5318 52.087C42.5318 48.5813 42.5523 47.4407 42.6163 47.3777C42.7391 47.2567 66.7457 47.2567 66.8685 47.3777ZM46.5532 49.5032C46.4051 49.6492 46.4026 49.691 46.4026 52.078C46.4026 54.4121 46.408 54.5097 46.5434 54.6431C46.7118 54.809 47.016 54.8225 47.2314 54.6738C47.3809 54.5708 47.3879 54.5208 47.3879 53.5646V52.5633H47.6978H48.0078L48.5952 53.6552C49.1618 54.7085 49.1909 54.7479 49.4189 54.7694C49.6894 54.7949 49.9919 54.5708 49.9919 54.3449C49.9919 54.2257 49.5073 53.2698 49.1363 52.6573L49.0042 52.4392L49.3053 52.2654C50.0763 51.8203 50.2255 50.5057 49.5774 49.8673C49.225 49.5201 48.92 49.4422 47.732 49.3954C46.747 49.3565 46.6976 49.361 46.5532 49.5032ZM51.0476 49.464L50.8716 49.5516L50.853 52.08C50.836 54.3955 50.8445 54.6157 50.9544 54.6951C51.0414 54.7579 51.4773 54.7818 52.5339 54.7818C53.7669 54.7818 54.0105 54.7649 54.104 54.6729C54.2308 54.5479 54.248 54.2796 54.1417 54.0839C54.0744 53.96 53.9841 53.9499 52.9453 53.9499H51.8217V53.2219V52.494H52.369C53.0045 52.494 53.2293 52.3879 53.2293 52.0879C53.2293 51.7823 53.1168 51.7314 52.441 51.7314H51.8217V51.0035V50.2755H52.8774C53.8392 50.2755 53.9456 50.2632 54.0738 50.1369C54.1512 50.0606 54.2146 49.9202 54.2146 49.8249C54.2146 49.7296 54.1512 49.5892 54.0738 49.5129C53.9427 49.3838 53.84 49.3744 52.5783 49.3753C51.6277 49.376 51.171 49.4025 51.0476 49.464ZM55.241 49.4517C55.1282 49.4822 55.01 49.5474 54.9782 49.5967C54.9465 49.6459 54.92 50.7703 54.9194 52.0954C54.9184 54.4127 54.9237 54.5097 55.0591 54.6431C55.2327 54.8141 55.557 54.8222 55.7551 54.6604C55.8966 54.5449 55.9044 54.4694 55.9212 53.0605L55.9388 51.5818L56.7734 53.117C57.6356 54.7029 57.6996 54.7818 58.1251 54.7818C58.2193 54.7818 58.3598 54.7194 58.4372 54.6431C58.5726 54.5098 58.578 54.4121 58.578 52.0913C58.578 50.2398 58.557 49.6499 58.4879 49.5567C58.3805 49.4121 57.8578 49.3825 57.6993 49.5122C57.6147 49.5812 57.5919 49.8759 57.5764 51.0975L57.5575 52.598L56.823 51.1996C56.4191 50.4304 56.0389 49.7363 55.9782 49.6571C55.8376 49.4734 55.5047 49.3807 55.241 49.4517ZM59.4929 49.4248C59.3337 49.4845 59.284 49.5908 59.2828 49.8745C59.2814 50.211 59.4107 50.2755 60.0865 50.2755H60.6189V52.39C60.6189 54.4121 60.6251 54.5105 60.7597 54.6431C60.9127 54.7938 61.2489 54.8256 61.4681 54.71C61.5983 54.6414 61.6042 54.5426 61.6042 52.4569V50.2755H62.1915C62.6712 50.2755 62.8002 50.2523 62.8953 50.1487C63.0533 49.9768 63.0421 49.6814 62.871 49.5129C62.7384 49.3823 62.6405 49.3746 61.1644 49.3798C60.3031 49.3827 59.551 49.4031 59.4929 49.4248ZM48.7482 50.4172C48.9561 50.5783 49.0451 50.9181 48.9754 51.2841C48.9045 51.6566 48.6148 51.8002 47.9333 51.8004L47.3879 51.8007V51.0381V50.2755H47.9766C48.4629 50.2755 48.5971 50.3001 48.7482 50.4172ZM52.807 59.7733V61.6451H49.1825H45.5581V59.8195C45.5581 58.8154 45.5792 57.9731 45.605 57.9477C45.6308 57.9223 47.2618 57.9015 49.2295 57.9015H52.807V59.7733ZM55.6053 60.8305L55.6237 63.7249H54.7432H53.8627V60.8594C53.8627 59.2834 53.8848 57.9722 53.9117 57.9456C53.9387 57.919 54.3266 57.906 54.7738 57.9167L55.5869 57.9361L55.6053 60.8305ZM52.807 63.2057V63.7264L43.4541 63.7083C34.3692 63.6907 34.097 63.6864 33.9531 63.5582C33.7598 63.3858 33.756 63.0105 33.9457 62.8237C34.0851 62.6864 34.1803 62.685 43.4467 62.685H52.807V63.2057ZM64.8987 62.8264C65.1018 63.0127 65.1048 63.3797 64.9047 63.5582C64.7632 63.6844 64.5759 63.6911 60.7172 63.7092L56.6778 63.7282V63.2066V62.685H60.7112C64.6731 62.685 64.7475 62.6875 64.8987 62.8264Z" fill="#61C5E7"/>
</g>
<defs>
<filter id="filter0_d_582_721" x="0.5" y="0.69043" width="109" height="109" filterUnits="userSpaceOnUse" color-interpolation-filters="sRGB">
<feFlood flood-opacity="0" result="BackgroundImageFix"/>
<feColorMatrix in="SourceAlpha" type="matrix" values="0 0 0 0 0 0 0 0 0 0 0 0 0 0 0 0 0 0 127 0" result="hardAlpha"/>
<feMorphology radius="1" operator="dilate" in="SourceAlpha" result="effect1_dropShadow_582_721"/>
<feOffset dx="5" dy="7"/>
<feGaussianBlur stdDeviation="8"/>
<feComposite in2="hardAlpha" operator="out"/>
<feColorMatrix type="matrix" values="0 0 0 0 0.525 0 0 0 0 0.525 0 0 0 0 0.525 0 0 0 0.16 0"/>
<feBlend mode="normal" in2="BackgroundImageFix" result="effect1_dropShadow_582_721"/>
<feBlend mode="normal" in="SourceGraphic" in2="effect1_dropShadow_582_721" result="shape"/>
</filter>
</defs>
</svg>
