<svg width="64" height="58" viewBox="0 0 64 58" fill="none" xmlns="http://www.w3.org/2000/svg">
<path id="interior-design (Traced)" fill-rule="evenodd" clip-rule="evenodd" d="M25.1009 0.533162C24.9556 0.562282 24.7341 0.699403 24.6086 0.837875C24.3907 1.07833 24.3789 1.573 24.3448 11.9198C24.3252 17.8765 24.3421 22.9329 24.3825 23.1563C24.4228 23.3796 24.5634 23.6699 24.695 23.8013C24.9293 24.0353 25.2425 24.0402 40.0083 24.0402C54.8536 24.0402 55.0861 24.0365 55.3254 23.7975C55.4591 23.6641 55.5991 23.4292 55.6368 23.2753C55.6744 23.1216 55.6897 18.0626 55.6706 12.0333L55.6361 1.07059L55.3561 0.790817C55.0835 0.518418 55.0008 0.50994 52.2646 0.472097C49.9778 0.440397 49.3707 0.467551 49.0112 0.617573C48.5304 0.818094 48.3531 1.20267 48.49 1.74771C48.6179 2.25651 49.1967 2.41538 50.9218 2.41538H52.4296L51.6369 3.21402L50.8442 4.01267H40.0083H29.1725L28.3821 3.21636L27.5916 2.42005L36.7946 2.387L45.9978 2.35395L46.2948 2.00918C46.6696 1.5741 46.6696 1.29077 46.2948 0.855691L45.9978 0.510923L35.6814 0.495565C30.0074 0.487087 25.2461 0.504043 25.1009 0.533162ZM27.1151 4.53129L27.8875 5.29566V12.2446V19.1935L27.0261 20.047L26.1648 20.9004V12.3337C26.1648 7.62192 26.2048 3.76693 26.2537 3.76693C26.3027 3.76693 26.6903 4.11096 27.1151 4.53129ZM53.8519 12.3337V20.9004L52.9905 20.047L52.1291 19.1935V12.2515V5.30942L52.8946 4.53817C53.3157 4.11403 53.7033 3.76693 53.756 3.76693C53.8088 3.76693 53.8519 7.62192 53.8519 12.3337ZM4.49267 4.38213C4.38316 4.44602 4.23241 4.6517 4.15772 4.83908C4.0076 5.21616 0.815704 19.132 0.815704 19.4096C0.815704 19.5055 0.930513 19.7295 1.07079 19.9075L1.32576 20.2313H4.88546H8.44504V36.2041V52.177H8.03699C5.67989 52.177 3.87236 53.5829 3.54442 55.6714C3.41165 56.5165 3.47305 56.8857 3.79471 57.1765C4.02199 57.3821 4.41909 57.4017 9.04234 57.4362C11.7932 57.4568 14.2271 57.4398 14.4508 57.3986C15.0827 57.2823 15.336 56.9487 15.336 56.233C15.336 55.0739 14.6423 53.7441 13.6763 53.0513C12.9591 52.5371 12.2779 52.3087 11.187 52.2166L10.29 52.1409L10.3211 36.2168L10.3524 20.2927H11.5214H12.6904L12.7224 25.7218L12.7545 31.1507L13.0774 31.4044C13.2551 31.5439 13.4734 31.658 13.5626 31.658C13.8879 31.658 14.3277 31.3779 14.4611 31.0858C14.5544 30.8812 14.5977 29.1149 14.5977 25.5088V20.2313H15.9992C17.5932 20.2313 17.9624 20.0787 17.9597 19.4211C17.9589 19.2247 17.2264 15.8572 16.3319 11.9377C14.8801 5.57592 14.6727 4.7817 14.3987 4.53486L14.0917 4.2584L9.39181 4.26209C6.66765 4.2643 4.6081 4.31468 4.49267 4.38213ZM50.2545 9.33765C50.2725 11.2189 50.2427 12.7394 50.1884 12.7165C50.134 12.6935 49.4897 12.0233 48.7567 11.2269C48.0237 10.4303 47.2505 9.68672 47.0386 9.57429C46.493 9.28482 45.3027 9.29489 44.6988 9.5942C44.3808 9.75172 43.3538 10.7917 41.6281 12.7035C39.1538 15.4446 39.0266 15.565 38.845 15.3352C38.0163 14.2864 35.7364 11.9299 35.368 11.7413C34.8241 11.4629 33.8391 11.4341 33.2508 11.6796C32.9989 11.7847 32.2469 12.5033 31.3168 13.5281L29.7949 15.2046L29.7625 10.6842C29.7448 8.19805 29.757 6.09418 29.7897 6.00903C29.8371 5.88591 31.9348 5.86073 40.0355 5.88567L50.2218 5.91712L50.2545 9.33765ZM13.1211 6.17171C13.1211 6.21041 13.7302 8.90049 14.4747 12.1497C15.2191 15.3989 15.8283 18.1318 15.8283 18.2227C15.8283 18.3594 14.7002 18.3882 9.35969 18.3882C3.25734 18.3882 2.89457 18.3761 2.95339 18.1732C2.9876 18.0549 3.57568 15.4978 4.2601 12.4906C4.9444 9.48337 5.55906 6.81566 5.62587 6.56218L5.74733 6.10143H9.43427C11.4619 6.10143 13.1211 6.13313 13.1211 6.17171ZM37.8434 7.24742C37.5452 7.40457 37.135 7.76875 36.932 8.05663C36.5986 8.52918 36.5628 8.67232 36.5628 9.53215C36.5628 10.3798 36.6015 10.5399 36.9151 10.9918C37.3611 11.6344 38.2987 12.1231 39.0788 12.1193C40.4565 12.1126 41.6682 10.9066 41.6682 9.54173C41.6682 7.63027 39.5395 6.35331 37.8434 7.24742ZM39.6321 9.07766C39.8899 9.44516 39.8733 9.73796 39.5776 10.0332C39.1009 10.5092 38.3471 10.2018 38.3471 9.53141C38.3471 8.83573 39.241 8.51996 39.6321 9.07766ZM46.329 11.354C46.4701 11.4724 47.4157 12.4814 48.43 13.5964L50.2743 15.6237L50.2788 17.1288L50.2833 18.634H46.0506H41.8179L41.0623 17.7829L40.3065 16.9318L42.6598 14.3118C43.9542 12.8708 45.1499 11.5675 45.3171 11.4155C45.6822 11.0834 45.9839 11.0651 46.329 11.354ZM36.9818 16.023L39.3404 18.634H34.5369H29.7333V18.3322C29.7333 18.1145 30.3223 17.3772 31.8483 15.6845C33.701 13.6294 34.0042 13.343 34.2932 13.3753C34.5471 13.4036 35.1682 14.0154 36.9818 16.023ZM51.5754 21.3371L52.4301 22.1972H40.0083H27.5865L28.4413 21.3371L29.296 20.477H40.0083H50.7206L51.5754 21.3371ZM24.1055 30.0044C21.9439 30.5856 20.2977 32.3598 19.8994 34.5373C19.826 34.9382 19.766 36.0733 19.766 37.0594V38.8526L18.9616 39.2025C17.9235 39.654 17.1485 40.4111 16.651 41.4598L16.2589 42.2861L16.2235 49.4924L16.1882 56.6987L16.4898 57.0488L16.7914 57.3989H31.3946H45.9977L46.2948 57.0541C46.6696 56.619 46.6696 56.3357 46.2948 55.9006L45.9978 55.5559L35.5891 55.5231L25.1803 55.4904V52.052V48.6138H40.0083H54.8363V52.0541V55.4944H52.1252C49.1234 55.4944 48.6354 55.5841 48.49 56.1621C48.3552 56.6987 48.531 57.092 48.9916 57.2841C49.341 57.4299 50.574 57.4603 56.1164 57.4603C60.4559 57.4603 62.9374 57.4154 63.1551 57.3327C63.8336 57.075 63.8111 57.3336 63.8153 49.7613C63.819 43.2253 63.8032 42.6865 63.5877 41.9956C63.1685 40.6505 62.1641 39.6035 60.7909 39.0799L60.2507 38.8738L60.2435 36.8939C60.2354 34.6013 60.0556 33.6986 59.3861 32.5868C58.8837 31.7524 57.9761 30.8965 57.1512 30.4791C55.8115 29.8012 56.0898 29.815 43.7457 29.815C37.4712 29.815 32.2439 29.8509 32.1293 29.8948C31.8156 30.015 31.5811 30.6642 31.7198 31.0283C31.9672 31.6784 31.4238 31.6499 43.6468 31.6541C56.3086 31.6585 55.723 31.6214 56.8667 32.4901C57.3125 32.8287 57.6006 33.1896 57.9126 33.8002L58.3433 34.643L58.3859 36.7543L58.4285 38.8657L57.6883 39.1352C56.7355 39.4821 55.8595 40.2695 55.319 41.2647L54.8978 42.0404L54.8576 44.4061L54.8175 46.7718L40.0296 46.7406L25.2419 46.7094L25.1776 44.3749C25.1184 42.2237 25.0899 41.9921 24.8139 41.426C24.3467 40.4677 23.2904 39.4855 22.3643 39.1483L21.5882 38.8657L21.6307 36.7543L21.6733 34.643L22.104 33.8002C22.4138 33.194 22.7028 32.8307 23.1335 32.506C24.0939 31.7821 24.663 31.658 27.0237 31.658C28.9227 31.658 29.1104 31.638 29.4091 31.4033C29.8329 31.0705 29.8511 30.4598 29.4486 30.0821C29.1773 29.8276 29.0591 29.8154 26.9567 29.8231C25.4678 29.8285 24.54 29.8875 24.1055 30.0044ZM22.0228 41.0266C22.2983 41.1787 22.6923 41.5429 22.8984 41.8358L23.273 42.3685L23.3068 48.9314L23.3408 55.4944H20.692H18.0432L18.044 49.2589C18.0443 45.2077 18.0907 42.8574 18.1762 42.5497C18.2487 42.2892 18.5329 41.8325 18.8076 41.5349C19.6549 40.6172 20.9191 40.4173 22.0228 41.0266ZM60.0897 40.8118C60.8366 41.0333 61.6405 41.8314 61.8404 42.5497C61.9259 42.8574 61.9723 45.2077 61.9727 49.2589L61.9734 55.4944H59.3278H56.6821V49.0827C56.6821 42.8179 56.688 42.6586 56.9408 42.1373C57.2296 41.5415 57.8027 41.0501 58.4969 40.8027C59.0989 40.5882 59.3401 40.5895 60.0897 40.8118ZM12.1366 54.2521C12.52 54.4596 13.1042 54.9942 13.259 55.2794C13.3692 55.4821 13.1505 55.4944 9.4307 55.4944H5.48547L5.66119 55.1565C5.89081 54.715 6.47642 54.292 7.05736 54.1482C7.78018 53.9692 11.7644 54.0507 12.1366 54.2521Z" fill="#61C5E7"/>
</svg>
