<svg width="110" height="110" viewBox="0 0 110 110" fill="none" xmlns="http://www.w3.org/2000/svg">
<g id="Icon">
<g id="Ellipse 4" filter="url(#filter0_d_582_732)">
<circle cx="50" cy="48.1904" r="37.5" fill="white"/>
</g>
<path id="sale 1 (Traced)" fill-rule="evenodd" clip-rule="evenodd" d="M46.6912 35.7138L39.78 39.7319H34.3496C31.082 39.7319 28.7273 39.7682 28.4376 39.823C27.7857 39.9463 27.3049 40.3052 26.9996 40.8965L26.75 41.38V47.6883V53.9965L26.9996 54.48C27.3049 55.0713 27.7857 55.4302 28.4376 55.5535C28.7182 55.6066 30.7029 55.6446 33.196 55.6446H37.4731V59.4871V63.3297H32.2938H27.1144L26.9322 63.5276C26.599 63.8894 26.7441 64.4041 27.2323 64.5919C27.5738 64.7233 71.6781 64.7233 72.0196 64.5919C72.5078 64.4041 72.6529 63.8894 72.3197 63.5276C72.1425 63.3351 72.0814 63.3297 70.0857 63.3297H68.034V54.2884C68.034 49.3157 68.0508 45.2471 68.0716 45.2471C68.0922 45.2471 68.4922 45.4709 68.9604 45.7444C69.9345 46.3134 70.2483 46.3652 70.5295 46.0034C70.7051 45.7776 70.7147 45.6533 70.7147 43.6175C70.7147 41.7034 70.6978 41.4495 70.5584 41.2834C70.4724 41.181 69.457 40.5511 68.302 39.8836C67.1471 39.2163 63.4945 37.0987 60.1853 35.1778C55.6288 32.5329 54.0997 31.6865 53.8854 31.6904C53.6812 31.6942 51.679 32.814 46.6912 35.7138ZM61.646 37.5944L69.3297 42.0571L69.3546 43.2385L69.3794 44.42L65.2888 42.0468C63.0388 40.7415 59.6094 38.7509 57.6678 37.6232C55.5683 36.4038 54.0441 35.5729 53.9072 35.5729C53.7702 35.5729 52.1922 36.4336 50.0117 37.6976L46.3466 39.8223H44.397C43.3247 39.8223 42.4762 39.7918 42.5112 39.7545C42.612 39.6473 53.7708 33.1512 53.8718 33.141C53.9216 33.136 57.4201 35.14 61.646 37.5944ZM60.3044 40.7116L66.6489 44.3982V53.8414V63.2844H62.8958H59.1427L59.1198 57.3459L59.0968 51.4073L58.862 51.2204C58.6361 51.0407 58.5216 51.0335 55.869 51.0335H53.111V46.2067V41.38L52.8614 40.8965C52.7057 40.5952 52.4674 40.3104 52.2285 40.1403C51.8522 39.8724 51.8212 39.8667 50.4899 39.8223L49.1345 39.7771L51.5025 38.4009C52.8049 37.6439 53.8906 37.0247 53.9152 37.0247C53.9398 37.0248 56.8149 38.6839 60.3044 40.7116ZM51.5884 41.3764C51.7681 41.5716 51.7706 41.6584 51.7677 47.6827C51.7646 54.3764 51.7931 54.0359 51.2227 54.2014C50.817 54.3191 29.0439 54.3191 28.6382 54.2014C28.0679 54.0359 28.0964 54.3764 28.0932 47.6827C28.0904 41.6584 28.0929 41.5716 28.2726 41.3764L28.4548 41.1785H39.9305H51.4062L51.5884 41.3764ZM31.5473 44.6158C30.1079 45.0529 29.8561 47.2717 31.1537 48.0834C31.5031 48.302 31.7032 48.354 32.3819 48.4025C33.2475 48.4644 33.3587 48.528 33.3612 48.9626C33.3638 49.4185 33.15 49.4965 31.8976 49.4965C31.2716 49.4965 30.6858 49.5364 30.5959 49.585C30.169 49.8162 30.2506 50.6947 30.71 50.8114C30.8299 50.8418 31.4859 50.8534 32.1677 50.8371C33.6095 50.8027 33.9453 50.6831 34.3902 50.0458C34.6329 49.6981 34.6583 49.5948 34.6583 48.954C34.6583 48.3135 34.6328 48.2098 34.3902 47.8612C33.9906 47.2871 33.4894 47.0554 32.6475 47.0554C31.9339 47.0554 31.777 46.9809 31.634 46.5742C31.5741 46.4038 31.7068 46.0657 31.8792 45.9492C31.9333 45.9126 32.5028 45.8822 33.1446 45.8814C34.1947 45.8802 34.3315 45.8615 34.5074 45.6956C34.635 45.5754 34.703 45.4038 34.703 45.2019C34.703 45 34.635 44.8284 34.5074 44.7082C34.3289 44.5399 34.2023 44.5244 33.0553 44.5316C32.3643 44.5358 31.6856 44.5737 31.5473 44.6158ZM37.0429 44.682C36.929 44.7811 36.5039 45.8409 35.9055 47.518C35.0055 50.04 34.957 50.2108 35.0724 50.4543C35.2358 50.7994 35.6207 50.9364 35.9289 50.7593C36.1826 50.6136 36.2485 50.5191 36.4476 50.0164L36.5819 49.6773H37.4622H38.3424L38.4981 50.1068C38.7632 50.8376 39.18 51.0397 39.6503 50.6653C39.7992 50.5468 39.8858 50.3895 39.8858 50.2377C39.8858 50.1055 39.4807 48.8575 38.9856 47.464C38.0515 44.8353 37.8871 44.5238 37.4333 44.5238C37.3187 44.5238 37.143 44.595 37.0429 44.682ZM40.3733 44.7458L40.1539 44.9676V47.6883V50.4089L40.3733 50.6307C40.5914 50.8515 40.6018 50.8527 42.3718 50.8527C44.0365 50.8527 44.1661 50.8407 44.3864 50.6653C44.712 50.4061 44.712 49.9431 44.3864 49.6839C44.1722 49.5134 44.0312 49.4965 42.8226 49.4965H41.4943V47.1976V44.8986L41.2588 44.7112C40.9465 44.4626 40.6412 44.4745 40.3733 44.7458ZM45.3523 44.733C45.1616 44.9384 45.158 44.993 45.158 47.7009V50.4595L45.3648 50.6561C45.5632 50.8446 45.645 50.8526 47.353 50.8498C49.2535 50.8467 49.3605 50.824 49.5238 50.3893C49.6245 50.1214 49.4542 49.6437 49.2264 49.5553C49.1432 49.5229 48.4954 49.4965 47.7868 49.4965H46.4984V48.9623V48.4281L47.8365 48.3973C49.0732 48.3687 49.1894 48.3513 49.3705 48.168C49.611 47.9243 49.6267 47.4867 49.4036 47.2374C49.254 47.07 49.1303 47.0554 47.8696 47.0554H46.4984V46.4677V45.88L47.8164 45.8771C49.2221 45.874 49.3666 45.8351 49.5238 45.4166C49.6245 45.1487 49.4542 44.671 49.2264 44.5826C49.1432 44.5502 48.2813 44.5238 47.3109 44.5238C45.5822 44.5238 45.5427 44.5281 45.3523 44.733ZM37.6846 47.8174C37.7649 48.0625 37.8305 48.276 37.8305 48.292C37.8305 48.308 37.6697 48.3211 37.4731 48.3211C37.2765 48.3211 37.1157 48.2942 37.1157 48.2613C37.1157 48.07 37.4274 47.2453 37.4779 47.3028C37.5114 47.3408 37.6044 47.5723 37.6846 47.8174ZM57.7577 57.8597V63.3297H53.9152H50.0728V59.4871V55.6446H50.5074C51.7157 55.6446 52.4468 55.2829 52.8614 54.48C53.0801 54.0564 53.111 53.8969 53.111 53.1931V52.3897H55.4343H57.7577V57.8597ZM41.0475 59.4871V63.3297H39.9305H38.8135V59.4871V55.6446H39.9305H41.0475V59.4871ZM48.711 59.4645L48.6877 63.2844L45.5378 63.3082L42.3879 63.332V59.4883V55.6446H45.5611H48.7343L48.711 59.4645ZM56.0272 56.8265C55.8043 57.0039 55.7917 57.0567 55.7917 57.8211C55.7917 58.7549 55.9236 58.9898 56.4481 58.9898C56.8918 58.9898 57.0724 58.7341 57.1157 58.0443C57.1603 57.3359 57.0231 56.8811 56.7232 56.7428C56.4094 56.5982 56.2972 56.6116 56.0272 56.8265Z" fill="#61C5E7"/>
</g>
<defs>
<filter id="filter0_d_582_732" x="0.5" y="0.69043" width="109" height="109" filterUnits="userSpaceOnUse" color-interpolation-filters="sRGB">
<feFlood flood-opacity="0" result="BackgroundImageFix"/>
<feColorMatrix in="SourceAlpha" type="matrix" values="0 0 0 0 0 0 0 0 0 0 0 0 0 0 0 0 0 0 127 0" result="hardAlpha"/>
<feMorphology radius="1" operator="dilate" in="SourceAlpha" result="effect1_dropShadow_582_732"/>
<feOffset dx="5" dy="7"/>
<feGaussianBlur stdDeviation="8"/>
<feComposite in2="hardAlpha" operator="out"/>
<feColorMatrix type="matrix" values="0 0 0 0 0.525 0 0 0 0 0.525 0 0 0 0 0.525 0 0 0 0.16 0"/>
<feBlend mode="normal" in2="BackgroundImageFix" result="effect1_dropShadow_582_732"/>
<feBlend mode="normal" in="SourceGraphic" in2="effect1_dropShadow_582_732" result="shape"/>
</filter>
</defs>
</svg>
