<svg width="101" height="33" viewBox="0 0 101 33" fill="none" xmlns="http://www.w3.org/2000/svg">
<path d="M26.3816 22.825L36.9847 10.8612L25.1277 0H12.1427L0 10.8612L14.8263 27.6866V8.06766L11.5105 10.8483V19.5096L4.06001 10.8612L13.1769 2.72601H24.0733L32.945 10.8612L26.3816 18.4198V22.825Z" fill="#050810"/>
<path d="M21.2713 7.34864L18.4651 5.01804L15.724 7.3165V28.7035L18.4396 31.7863L21.2713 28.5909V7.34864Z" fill="#050810"/>
<path d="M22.168 27.5794L25.4838 23.8376V19.4528V10.8483L22.168 8.09338V27.5794Z" fill="#050810"/>
<path d="M21.2713 7.34864L18.4652 5.01804L18.4396 31.7863L21.2713 28.5909V7.34864Z" fill="#ADADAD"/>
<path d="M25.4838 10.8483L22.168 8.09338V27.5794L25.4838 23.8376V10.8483Z" fill="#ADADAD"/>
<path d="M54.1277 10.2671C54.1277 7.79454 54.1676 5.0212 54.2305 3.38466H54.1307C53.4524 6.34155 52.0113 11.1694 50.6285 15.7043H47.9734C46.9221 11.7401 45.4303 6.23974 44.798 3.34455H44.7013C44.8241 5.04434 44.884 8.02745 44.884 10.5123V15.7027H42.0416V1.21133H46.6827C47.8061 4.99806 49.0676 9.74883 49.5004 11.9083H49.5235C49.8764 10.0033 51.4603 4.92557 52.6635 1.21133H57.1357V15.7043H54.1277V10.2671Z" fill="#050810"/>
<path d="M63.2793 12.3556L62.1543 15.7027H59.0895L63.9853 1.20981H67.9019L73.0095 15.7027H69.7313L68.5465 12.3556H63.2793ZM67.8758 9.78741C66.8522 6.72872 66.1999 4.77443 65.8515 3.47259H65.83C65.474 4.90091 64.7542 7.17449 63.9331 9.78741H67.8758Z" fill="#050810"/>
<path d="M77.1855 11.4563C77.514 12.9108 78.553 13.5494 80.2228 13.5494C81.888 13.5494 82.5986 12.8893 82.5986 11.828C82.5986 10.6481 81.9033 10.1375 79.437 9.55909C75.5127 8.63362 74.5427 7.19913 74.5427 5.24176C74.5427 2.71521 76.4228 1 79.836 1C83.6652 1 85.1892 3.06843 85.3964 5.18777H82.2548C82.1044 4.29623 81.6133 3.32757 79.7547 3.32757C78.4885 3.32757 77.7258 3.85354 77.7258 4.88236C77.7258 5.89113 78.3381 6.29834 80.6679 6.84282C84.8623 7.83617 85.7816 9.40485 85.7816 11.4471C85.7816 14.0924 83.7895 15.9078 79.9772 15.9078C76.3169 15.9078 74.3893 14.097 74.0439 11.4548H77.1855V11.4563Z" fill="#050810"/>
<path d="M91.2682 12.3556L90.1432 15.7027H87.0784L91.9757 1.20981H95.8923L101 15.7027H97.7218L96.5369 12.3556H91.2682ZM95.8647 9.78741C94.8411 6.72872 94.1888 4.77443 93.8404 3.47259H93.8189C93.4629 4.90091 92.7431 7.17449 91.922 9.78741H95.8647Z" fill="#050810"/>
<path d="M42.9993 26.6912V32.4091H42.0416V20.1681H46.4095C48.8113 20.1681 50.0806 21.4622 50.0806 23.3857C50.0806 24.942 49.1582 25.957 47.8015 26.2531C49.0538 26.5508 49.8887 27.3729 49.8887 29.4537V29.9257C49.8887 30.7833 49.8197 31.9371 50.0453 32.4091H49.0876C48.862 31.8846 48.9142 30.9052 48.9142 29.8563V29.5416C48.9142 27.5303 48.3233 26.6912 45.9905 26.6912H42.9993ZM42.9993 25.8166H45.9399C48.0793 25.8166 49.0722 25.0114 49.0722 23.4027C49.0722 21.8988 48.0977 21.0427 46.2008 21.0427H42.9993V25.8166Z" fill="#050810"/>
<path d="M60.2083 26.3935H53.9972V31.5345H60.8007L60.6611 32.4091H53.058V20.1681H60.5229V21.0427H53.9988V25.5189H60.2098V26.3935H60.2083Z" fill="#050810"/>
<path d="M64.7696 28.1781L63.221 32.4091H62.2649L66.7371 20.1681H67.8513L72.5138 32.4091H71.4871L69.9033 28.1781H64.7696ZM69.5886 27.3035C68.2319 23.6664 67.5352 21.9173 67.2911 21.0951H67.2743C66.9781 22.0222 66.1953 24.1893 65.0995 27.3035H69.5886Z" fill="#050810"/>
<path d="M74.6363 20.1681H75.5756V31.5345H82.1181L81.9432 32.4091H74.6348V20.1681H74.6363Z" fill="#050810"/>
<path d="M84.7287 21.0427H80.6401V20.1681H89.7918V21.0427H85.6848V32.4091H84.7271V21.0427H84.7287Z" fill="#050810"/>
<path d="M95.3277 32.4091V27.811C95.3277 27.7061 95.2924 27.5827 95.2586 27.5303L90.9092 20.1681H92.005C93.2236 22.2489 95.3461 25.869 95.8679 26.7775C96.3897 25.869 98.5307 22.2828 99.8352 20.1681H100.879L96.3375 27.5997C96.3022 27.6691 96.2854 27.74 96.2854 27.8619V32.4091H95.3277Z" fill="#050810"/>
</svg>
